<?xml version="1.0" encoding="UTF-8"?>
<svg width="51px" height="54px" viewBox="0 0 51 54" version="1.1" xmlns="http://www.w3.org/2000/svg" xmlns:xlink="http://www.w3.org/1999/xlink">
    <!-- Generator: sketchtool 48.2 (47327) - http://www.bohemiancoding.com/sketch -->
    <title>C68C8968-D407-452C-BB7E-2DE024ACFF66</title>
    <desc>Created with sketchtool.</desc>
    <defs>
        <polygon id="path-1" points="35.7946 13.1266022 35.7946 0.147949125 2.97351879e-20 0.147949125 0 13.1266022"></polygon>
    </defs>
    <g id="footer/footer-main" stroke="none" stroke-width="1" fill="none" fill-rule="evenodd" transform="translate(-695.000000, -161.000000)">
        <g id="logo/logo-with-tagline" transform="translate(695.000000, 161.000000)">
            <g>
                <g id="Page-1" transform="translate(0.000000, 41.000000)" fill="#FFFFFF">
                    <path d="M38.2331073,11.5714603 L39.1338711,11.5714603 L39.1338711,6.60854725 L38.2331073,7.0417375 L38.2331073,11.5714603 Z M15.7603821,7.56137454 L16.6596885,7.56137454 L16.6596885,6.69537656 L15.7603821,6.69537656 L15.7603821,7.56137454 Z M15.7603821,11.5723528 L16.6606159,11.5723528 L16.6606159,8.0623962 L15.7603821,8.0623962 L15.7603821,11.5723528 Z M22.816586,8.78131988 C22.5092213,8.78131988 22.1419074,8.95083465 22.1419074,9.76015771 C22.1419074,10.6581589 22.5130634,10.847054 22.8237401,10.847054 C23.1460093,10.847054 23.3189019,10.6809181 23.4623829,10.5011394 L23.4623829,9.12277197 C23.356925,8.97423139 23.1548195,8.78131988 22.816586,8.78131988 Z M23.4623829,8.06150368 L24.3620868,8.06150368 L24.3620868,11.2446073 C24.3620868,12.4073039 23.7831947,12.9818309 22.5931504,12.99949 L22.5757287,13 L22.2563742,12.3190721 L22.2977094,12.3184346 C23.4611905,12.2983529 23.4623829,11.7726595 23.4623829,11.3883028 L23.4623829,11.3062548 C23.2302696,11.5313607 22.9517204,11.6452844 22.6349494,11.6452844 C21.7506799,11.6452844 21.2227944,10.9482911 21.2227944,9.78068564 C21.2227944,8.67338889 21.7710826,7.98729714 22.6536297,7.98729714 C22.9600007,7.98729714 23.2449754,8.100902 23.4623829,8.30841256 L23.4623829,8.06150368 Z M18.3697354,9.63354758 C18.3697354,9.07642476 18.6092016,8.7822124 19.061372,8.7822124 C19.509303,8.7822124 19.7180989,9.05353804 19.7180989,9.63909395 L19.7180989,11.5723528 L20.6182003,11.5723528 L20.6182003,9.58834789 C20.6182003,8.54199741 20.1566897,7.98818966 19.2831515,7.98818966 C18.9119292,7.98818966 18.5905875,8.11817861 18.3697354,8.35998738 L18.3697354,8.0623962 L17.4689716,8.0623962 L17.4689716,11.5723528 L18.3697354,11.5723528 L18.3697354,9.63354758 Z M15.0662282,8.06188619 L14.0255606,8.06188619 L13.3065658,8.96288365 C13.2104481,9.08190737 13.0775659,9.24778832 12.9655501,9.40289529 L12.9655501,6.60854725 L12.0687608,7.0417375 L12.0687608,11.5714603 L12.9655501,11.5714603 L12.9655501,10.520201 L13.4417665,9.94255025 L14.2080583,11.5714603 L15.2038137,11.5714603 L14.0938564,9.21839896 L15.0662282,8.06188619 Z M33.9409327,9.81791641 C33.9409327,9.20207862 33.6505924,8.80299533 33.2023303,8.80299533 C32.7533395,8.80299533 32.4633966,9.20207862 32.4633966,9.81791641 C32.4633966,10.4341367 32.7533395,10.8325825 33.2023303,10.8325825 C33.6505924,10.8325825 33.9409327,10.4341367 33.9409327,9.81791641 Z M34.8593832,9.81791641 C34.8593832,10.880396 34.1624472,11.650767 33.2023303,11.650767 C32.2420808,11.650767 31.5456085,10.880396 31.5456085,9.81791641 C31.5456085,8.75594685 32.2420808,7.98621337 33.2023303,7.98621337 C34.1624472,7.98621337 34.8593832,8.75594685 34.8593832,9.81791641 Z M30.1537237,9.35374302 C30.0763527,9.68467614 30.0013,10.0119117 29.960296,10.2377826 C29.9063747,9.96550073 29.8074086,9.58573409 29.7429548,9.35387052 L29.363386,8.06188619 L28.5968955,8.06188619 L28.2170617,9.35412553 C28.1497595,9.59516928 28.0515883,9.97257712 28.0011116,10.2329375 C27.9554706,9.96932581 27.8691568,9.57859394 27.8180177,9.37363343 L27.4833612,8.06188619 L26.5547756,8.06188619 L27.5790814,11.5526537 L27.5843808,11.5714603 L28.3632586,11.5714603 L28.7638263,10.1431757 C28.8298037,9.92661242 28.9312207,9.49405968 28.9656668,9.35151172 C29.0148186,9.55047961 29.0955681,9.8581435 29.1634665,10.1146151 L29.5693335,11.5714603 L30.3433094,11.5714603 L31.3726497,8.06188619 L30.4824846,8.06188619 L30.1537237,9.35374302 Z M37.8060427,8.19997156 C37.6335476,8.07036512 37.3675845,7.98895467 37.1271909,7.98895467 C36.8082339,7.98895467 36.53823,8.10447207 36.3220149,8.36680877 L36.3220149,8.0623962 L35.4214498,8.0623962 L35.4214498,11.5723528 L36.3220149,11.5723528 L36.3220149,9.67065085 C36.3220149,9.11378304 36.5284261,8.85469766 36.9720513,8.85469766 C37.1850205,8.85469766 37.3879871,8.9265454 37.5684976,9.04505911 L37.8060427,8.19997156 Z M7.79036465,9.81632263 C7.79036465,9.20035733 7.50055426,8.80127405 7.05143097,8.80127405 C6.60290386,8.80127405 6.31309347,9.20035733 6.31309347,9.81632263 C6.31309347,10.4325429 6.60290386,10.8311162 7.05143097,10.8311162 C7.50055426,10.8311162 7.79036465,10.4325429 7.79036465,9.81632263 Z M8.70894764,9.81632263 C8.70894764,10.8786747 8.01168042,11.6493007 7.05143097,11.6493007 C6.09171146,11.6493007 5.39484169,10.8786747 5.39484169,9.81632263 C5.39484169,8.75435307 6.09171146,7.98410957 7.05143097,7.98410957 C8.01168042,7.98410957 8.70894764,8.75435307 8.70894764,9.81632263 Z M3.99560403,9.35374302 C3.91902785,9.68467614 3.84397524,10.0119117 3.80257376,10.2377826 C3.74878495,9.96550073 3.65081248,9.58573409 3.58602744,9.35387052 L3.20606118,8.06188619 L2.43970316,8.06188619 L2.05986939,9.35412553 C1.99269962,9.59516928 1.89399849,9.97257712 1.84365428,10.2329375 C1.79847698,9.96932581 1.71156699,9.57859394 1.66095782,9.37363343 L1.32524147,8.06188619 L0.397450781,8.06188619 L1.42705599,11.5714603 L2.20553637,11.5714603 L2.60544158,10.1431757 C2.67208141,9.92661242 2.77402842,9.49405968 2.80834197,9.35151172 C2.8566989,9.55047961 2.93870696,9.8581435 3.00653915,10.1146151 L3.41147878,11.5714603 L4.18532219,11.5714603 L5.21519237,8.06188619 L4.3246299,8.06188619 L3.99560403,9.35374302 Z M11.6483205,8.19997156 C11.4760903,8.07036512 11.2101272,7.98895467 10.9697336,7.98895467 C10.6510416,7.98895467 10.3809052,8.10447207 10.16469,8.36680877 L10.16469,8.0623962 L9.26399249,8.0623962 L9.26399249,11.5723528 L10.16469,11.5723528 L10.16469,9.67065085 C10.16469,9.11378304 10.3709688,8.85469766 10.8148589,8.85469766 C11.0274307,8.85469766 11.2302649,8.9265454 11.4113053,9.04505911 L11.6483205,8.19997156 Z M42.0028283,10.5021594 L42.0028283,9.12398325 C41.8980329,8.97557017 41.6956624,8.78272241 41.3573626,8.78272241 C41.0496006,8.78272241 40.6827503,8.95204593 40.6827503,9.761879 C40.6827503,10.6594976 41.0558936,10.8482653 41.3691538,10.8482653 C41.703479,10.8482653 41.8695487,10.6698254 42.0028283,10.5021594 Z M42.0028283,7.03752991 L42.9027972,6.60370215 L42.9027972,11.5718428 L42.0028283,11.5718428 L42.0028283,11.3037685 C41.7615736,11.5376084 41.4781887,11.6466869 41.1755936,11.6466869 C40.2924502,11.6466869 39.7650947,10.9498849 39.7650947,9.78221567 C39.7650947,8.67466392 40.3126542,7.98895467 41.1942077,7.98895467 C41.5005787,7.98895467 41.7839635,8.09114805 42.0028283,8.30981509 L42.0028283,7.03752991 Z M16.3671622,1.43213099 L17.2666012,1.43213099 L17.2666012,0.566898024 L16.3671622,0.566898024 L16.3671622,1.43213099 Z M16.3671622,5.44272679 L17.267661,5.44272679 L17.267661,1.93379016 L16.3671622,1.93379016 L16.3671622,5.44272679 Z M9.19642527,1.43213099 L10.0961292,1.43213099 L10.0961292,0.566898024 L9.19642527,0.566898024 L9.19642527,1.43213099 Z M51,2.07104676 C50.8271736,1.94163158 50.561078,1.85939237 50.3210157,1.85939237 C50.0021249,1.85939237 49.7317235,1.97490977 49.5155084,2.23826649 L49.5155084,1.93385391 L48.6146784,1.93385391 L48.6146784,5.44272679 L49.5155084,5.44272679 L49.5155084,3.5415348 C49.5155084,2.9850495 49.7222509,2.72558161 50.1655448,2.72558161 C50.3782491,2.72558161 50.5816132,2.79768436 50.7627198,2.91619807 L51,2.07104676 Z M41.990706,4.53777675 C41.8249676,4.62358603 41.6343882,4.69664505 41.445465,4.69664505 C41.178442,4.69664505 41.0560261,4.53662922 41.0560261,4.22437524 L41.0560261,2.74661955 L41.8244376,2.74661955 L41.8244376,1.93385391 L41.0560261,1.93385391 L41.0560261,0.600686226 L40.1559247,1.03362147 L40.1559247,1.93385391 L39.592732,1.93385391 L39.592732,2.74661955 L40.1559247,2.74661955 L40.1559247,4.44176725 C40.1559247,4.93807131 40.4102954,5.51782585 41.1278328,5.51782585 C41.4130062,5.51782585 41.6745974,5.46089592 41.8848507,5.35545123 L41.990706,4.53777675 Z M43.6304697,2.74661955 L44.4502853,2.74661955 L44.4502853,1.93385391 L43.6306684,1.93385391 L43.6306684,0.600686226 L42.7301033,1.03362147 L42.7301033,1.93385391 L42.1698916,1.93385391 L42.1698916,2.74661955 L42.7301033,2.74661955 L42.7301033,4.44176725 C42.7301033,4.93807131 42.9849378,5.51782585 43.7023427,5.51782585 C43.9873836,5.51782585 44.2493722,5.46089592 44.4593605,5.35545123 L44.5650833,4.53777675 C44.39908,4.62358603 44.2091631,4.69664505 44.0199748,4.69664505 C43.7529518,4.69664505 43.6304697,4.53662922 43.6304697,4.22437524 L43.6304697,2.74661955 Z M47.1678124,3.31974395 C47.1463499,2.96388406 46.9560356,2.59399888 46.4805478,2.59399888 C46.100714,2.59399888 45.8246158,2.89095254 45.8026234,3.31974395 L47.1678124,3.31974395 Z M47.8865422,4.96695066 C47.5359876,5.33677209 47.0798426,5.51782585 46.5993204,5.51782585 C45.5504386,5.51782585 44.8725142,4.80100596 44.8725142,3.69179668 C44.8725142,2.62995462 45.5596463,1.85939237 46.5064486,1.85939237 C47.4353654,1.85939237 48.0355875,2.57857105 48.0355875,3.69179668 C48.0355875,3.77932724 48.0302219,3.88209438 48.02479,3.95445213 L45.7904348,3.95445213 C45.8340222,4.66355811 46.4192074,4.71921301 46.5993204,4.71921301 C46.9307972,4.71921301 47.1548952,4.56614609 47.3179839,4.42347062 L47.8865422,4.96695066 Z M38.4778729,3.31974395 C38.4566753,2.96388406 38.266096,2.59399888 37.7907408,2.59399888 C37.4107745,2.59399888 37.1352062,2.89095254 37.1130813,3.31974395 L38.4778729,3.31974395 Z M39.1967351,4.96695066 C38.8543946,5.33677209 38.390168,5.51782585 37.9097783,5.51782585 C36.8607641,5.51782585 36.1825747,4.80100596 36.1825747,3.69179668 C36.1825747,2.62995462 36.8699718,1.85939237 37.816774,1.85939237 C38.7455583,1.85939237 39.3457805,2.57857105 39.3457805,3.69179668 C39.3457805,3.77932724 39.3406136,3.88209438 39.3355792,3.95445213 L37.1006277,3.95445213 C37.1446126,4.66355811 37.7294003,4.71921301 37.9097783,4.71921301 C38.2411227,4.71921301 38.4654856,4.56614609 38.6286405,4.42347062 L39.1967351,4.96695066 Z M28.6427352,4.80336476 C28.9728872,4.80336476 29.2340809,4.6175934 29.3490114,4.43354333 L29.3490114,3.95343211 C29.1408116,3.83051956 28.9086983,3.78034726 28.6427352,3.78034726 C28.2544224,3.78034726 28.0221104,3.96675614 28.0221104,4.27888262 C28.0221104,4.60242059 28.2597218,4.80336476 28.6427352,4.80336476 Z M27.4151315,2.1981669 C27.836698,1.96630334 28.2784021,1.85939237 28.7774059,1.85939237 C29.6988374,1.85939237 30.2488478,2.31444932 30.2488478,3.07761642 L30.2488478,5.44272679 L29.3490114,5.44272679 L29.3490114,5.15571833 C29.1019936,5.42168885 28.7291153,5.51782585 28.4725585,5.51782585 C27.8494828,5.51782585 27.1210816,5.19333161 27.1210816,4.27888262 C27.1210816,3.42971498 27.9040665,3.12861748 28.5745056,3.12861748 C28.8423235,3.12861748 29.1412091,3.19287881 29.3490114,3.29437092 L29.3490114,3.05702474 C29.3490114,2.72711164 29.1238536,2.55307053 28.6985775,2.55307053 C28.3221221,2.55307053 28.0527144,2.63989983 27.7660174,2.79545306 L27.4151315,2.1981669 Z M23.4232999,2.65150257 C23.115604,2.65150257 22.7486875,2.82120859 22.7486875,3.63078666 C22.7486875,4.52878781 23.1195123,4.71730047 23.4302553,4.71730047 C23.7529219,4.71730047 23.9255495,4.55161078 24.068898,4.3716408 L24.068898,2.99365593 C23.9638376,2.84511534 23.7614672,2.65150257 23.4232999,2.65150257 Z M24.068898,1.93283389 L24.9684695,1.93283389 L24.9684695,5.11549124 C24.9684695,6.27837915 24.3902398,6.85239607 23.1994669,6.8706927 L23.1819789,6.87113896 L22.8630881,6.19008356 L22.9038272,6.18919104 C24.0677057,6.16942813 24.068898,5.64347971 24.068898,5.25893172 L24.068898,5.17726628 C23.8373147,5.4022447 23.5583681,5.51610457 23.2415308,5.51610457 C22.3573276,5.51610457 21.8294421,4.81879258 21.8294421,3.65150584 C21.8294421,2.54452785 22.377664,1.85760733 23.2600124,1.85760733 C23.5665159,1.85760733 23.851888,1.97121219 24.068898,2.17987027 L24.068898,1.93283389 Z M33.4970426,3.00946625 L33.4970426,4.38910866 C33.5938227,4.50252226 33.8181856,4.71921301 34.156088,4.71921301 C34.6006405,4.71921301 34.8172531,4.36348063 34.8172531,3.6325717 C34.8172531,2.9105242 34.4659698,2.65335136 34.1373414,2.65335136 C33.8727693,2.65335136 33.6448956,2.78824916 33.4970426,3.00946625 Z M35.7364985,3.65297212 C35.7364985,4.83810923 35.2216628,5.51782585 34.3236149,5.51782585 C34.0040617,5.51782585 33.7190208,5.40141593 33.4970426,5.18026259 L33.4970426,5.44272679 L32.5965438,5.44272679 L32.5965438,0.997283213 L33.4970426,0.564921733 L33.4970426,2.18477913 C33.7257775,1.98020113 34.0242656,1.85939237 34.3050008,1.85939237 C35.1882766,1.85939237 35.7364985,2.54656789 35.7364985,3.65297212 Z M14.6642695,4.37342583 L14.6642695,2.99531346 C14.5590766,2.84677288 14.3569049,2.65335136 14.0192013,2.65335136 C13.7112405,2.65335136 13.344324,2.82292988 13.344324,3.6325717 C13.344324,4.53070035 13.7177322,4.71921301 14.0308599,4.71921301 C14.3650527,4.71921301 14.5307911,4.54064556 14.6642695,4.37342583 Z M14.6642695,0.908477618 L15.563841,0.475032366 L15.563841,5.44272679 L14.6642695,5.44272679 L14.6642695,5.17503498 C14.4232135,5.40887484 14.1397624,5.51782585 13.8372997,5.51782585 C12.9540239,5.51782585 12.4268009,4.82064137 12.4268009,3.65297212 C12.4268009,2.54656789 12.9742941,1.85939237 13.8557813,1.85939237 C14.1617549,1.85939237 14.4450073,1.96222325 14.6642695,2.18140031 L14.6642695,0.908477618 Z M10.8997154,5.44272679 L11.8003467,5.44272679 L11.8003467,0.474777361 L10.8997154,0.908477618 L10.8997154,5.44272679 Z M9.19642527,5.44279054 L10.0973216,5.44279054 L10.0973216,1.93385391 L9.19642527,1.93385391 L9.19642527,5.44279054 Z M18.9765156,3.50392152 C18.9765156,2.94686245 19.2158493,2.65252259 19.6681522,2.65252259 C20.1158181,2.65252259 20.3246141,2.92454949 20.3246141,3.50965914 L20.3246141,5.44272679 L21.2253779,5.44272679 L21.2253779,3.45910434 C21.2253779,2.41179759 20.7634698,1.85824484 19.8897992,1.85824484 C19.5188419,1.85824484 19.1975001,1.98976383 18.9765156,2.23004257 L18.9765156,1.93385391 L18.0758842,1.93385391 L18.0758842,5.44272679 L18.9765156,5.44272679 L18.9765156,3.50392152 Z M6.61502621,5.51782585 C6.97187388,5.51782585 7.26479766,5.39790961 7.48631215,5.16234847 L7.48631215,5.44272679 L8.38687722,5.44272679 L8.38687722,1.93385391 L7.48631215,1.93385391 L7.48631215,3.87214917 C7.48631215,4.43743216 7.25843839,4.72367561 6.8088514,4.72367561 C6.35151405,4.72367561 6.13827985,4.45132995 6.13827985,3.86666656 L6.13827985,1.93385391 L5.23764854,1.93385391 L5.23764854,3.91709386 C5.23764854,4.51463502 5.41696664,5.51782585 6.61502621,5.51782585 Z M3.46506886,1.97095719 C3.46506886,1.62344872 3.24978115,1.45431646 2.80688464,1.45431646 L1.68182416,1.45431646 L1.68182416,2.48020276 L2.85616896,2.48020276 C3.35974349,2.48020276 3.46506886,2.20326701 3.46506886,1.97095719 Z M3.62106965,3.94272189 C3.62106965,3.49149002 3.36643397,3.26211275 2.86372059,3.26211275 L1.68195665,3.26211275 L1.68195665,4.62976991 L2.86372059,4.62976991 C3.34497144,4.62976991 3.62106965,4.37941846 3.62106965,3.94272189 Z M2.86087217,5.44272679 L0.755292084,5.44272679 L0.755292084,0.639128274 L2.88220222,0.639128274 C3.8668951,0.639128274 4.43154509,1.09571526 4.43154509,1.89126803 C4.43154509,2.28869378 4.20545987,2.6624678 3.86351674,2.83988773 C4.12252442,2.94896625 4.60165551,3.24094731 4.60165551,3.90759491 C4.60165551,4.86883737 3.95089043,5.44272679 2.86087217,5.44272679 Z" id="Fill-1"></path>
                </g>
                <g id="logo/ey-light-color">
                    <g id="logo/ey-color">
                        <polygon id="Fill-1" fill="#FFFFFF" points="0.0301136053 18.9196142 0.0301136053 36.9072851 14.5142641 36.9072851 14.5142641 32.770159 5.46043587 32.770159 5.46043587 29.8024575 12.0075396 29.8024575 12.0075396 26.0249867 5.46043587 26.0249867 5.46043587 23.0567404 12.7030596 23.0567404 10.3000049 18.9196142"></polygon>
                        <g id="Group-7" transform="translate(0.000000, 0.396983)">
                            <path d="M24.4376569,18.522631 L21.3621199,24.3926419 L18.294262,18.522631 L12.2901906,18.522631 L16.8620831,26.3881841 C18.0112271,28.3646536 18.6162418,30.6070501 18.6162418,32.8897716 L18.6162418,36.5103019 L24.0301085,36.5103019 L24.0301085,29.4054743 L30.3643874,18.522631 L24.4376569,18.522631 Z" id="Fill-2" fill="#FFFFFF"></path>
                            <g id="Group-6">
                                <mask id="mask-2" fill="white">
                                    <use xlink:href="#path-1"></use>
                                </mask>
                                <g id="Clip-5"></g>
                                <polygon id="Fill-4" fill="#FFE102" mask="url(#mask-2)" points="35.7948743 0.147949125 -0.0002742587 13.1266022 35.7948743 6.84516733"></polygon>
                            </g>
                        </g>
                    </g>
                </g>
            </g>
        </g>
    </g>
</svg>