<svg xmlns="http://www.w3.org/2000/svg" viewBox="0 0 162 162" class="outline">
    <defs>
        <style>
            .letter-color {
                fill: #aaaaaa;
            }

            @media screen and (min-width: 1px) {
                #notches,
                #numbers,
                #secondhand {
                    display: none;
                }

                #basecircle,
                #hourhand,
                #minutehand {
                    display: block;
                }
            }

            @media screen and (min-width: 480px) {
                #secondhand {
                    display: block;
                }
                #numbers {
                    display: block;
                }
            }
        </style>
    </defs>
    <g id="basecircle">
        <path fill="#0D1121" d="M81.33,162.663c-21.723,0-42.149-8.461-57.508-23.82C8.459,123.479,0,103.056,0,81.331
				c0-21.723,8.459-42.147,23.822-57.508C39.181,8.46,59.607,0,81.33,0s42.148,8.46,57.51,23.823
				c15.361,15.36,23.82,35.785,23.82,57.508c0,21.725-8.459,42.149-23.82,57.512C123.479,154.202,103.053,162.663,81.33,162.663z
				 M81.33,7.594c-40.658,0-73.737,33.078-73.737,73.736c0,40.662,33.079,73.738,73.737,73.738s73.737-33.076,73.737-73.738
				C155.067,40.672,121.988,7.594,81.33,7.594z" />
        <circle fill="#0D1121" cx="81.334" cy="81.331" r="69.406" />
        <path d="M81.334,150.987c-38.406,0-69.653-31.248-69.653-69.657c0-38.407,31.247-69.652,69.653-69.652
			c38.407,0,69.654,31.246,69.654,69.652C150.988,119.74,119.741,150.987,81.334,150.987z M81.334,12.175
			c-38.135,0-69.158,31.022-69.158,69.156c0,38.135,31.023,69.16,69.158,69.16c38.134,0,69.158-31.025,69.158-69.16
			C150.492,43.197,119.468,12.175,81.334,12.175z" />
        <circle fill="#BDAE87" cx="81.334" cy="81.331" r="75.606" />
        <path d="M81.334,157.21c-41.837,0-75.877-34.039-75.877-75.879c0-41.838,34.04-75.875,75.877-75.875
			c41.838,0,75.877,34.037,75.877,75.875C157.211,123.171,123.172,157.21,81.334,157.21z M81.334,5.997
			c-41.541,0-75.337,33.795-75.337,75.334c0,41.542,33.796,75.338,75.337,75.338s75.336-33.797,75.336-75.338
			C156.67,39.792,122.875,5.997,81.334,5.997z" />
        <circle fill="#DBD4B7" cx="81.334" cy="81.331" r="69.406" />
        <path d="M81.334,150.987c-38.406,0-69.653-31.248-69.653-69.657c0-38.407,31.247-69.652,69.653-69.652
			c38.407,0,69.654,31.246,69.654,69.652C150.988,119.74,119.741,150.987,81.334,150.987z M81.334,12.175
			c-38.135,0-69.158,31.022-69.158,69.156c0,38.135,31.023,69.16,69.158,69.16c38.134,0,69.158-31.025,69.158-69.16
			C150.492,43.197,119.468,12.175,81.334,12.175z" />
        <path fill="#0D1121" d="M84.435,81.562c-0.021,0.374-0.119,0.786-0.286,1.133c-0.173,0.354-0.414,0.667-0.703,0.919
			c-0.571,0.509-1.313,0.789-2.063,0.798c-0.749,0.018-1.506-0.272-2.071-0.791c-0.568-0.513-0.942-1.27-0.98-2.072
			c-0.044-0.796,0.242-1.634,0.808-2.245c0.282-0.304,0.626-0.556,1.013-0.728c0.386-0.168,0.81-0.26,1.231-0.27
			c0.85-0.017,1.699,0.363,2.252,0.99c0.556,0.624,0.842,1.455,0.8,2.252V81.562z" />
        <path fill="#0D1121" d="M74.771,87.113c-0.714-0.795-1.346-1.831-1.708-2.874c-0.371-1.063-0.512-2.184-0.441-3.275
				c0.129-2.188,1.062-4.259,2.559-5.79c1.478-1.553,3.598-2.501,5.789-2.59c2.19-0.116,4.477,0.661,6.172,2.205
				c1.708,1.52,2.82,3.793,2.913,6.174c0.037,1.186-0.146,2.395-0.582,3.521c-0.438,1.125-1.105,2.164-1.943,3.038
				c-1.686,1.75-4.174,2.707-6.56,2.552c-2.386-0.137-4.646-1.237-6.175-2.938L74.771,87.113z M76.637,86.261
				c1.359,1.193,3.168,1.745,4.875,1.556c1.712-0.168,3.277-0.91,4.482-2.072c1.221-1.146,1.982-2.767,2.102-4.481
				c0.139-1.713-0.397-3.509-1.587-4.874c-1.17-1.37-2.942-2.282-4.866-2.373c-0.957-0.034-1.938,0.107-2.854,0.459
				c-0.914,0.356-1.756,0.893-2.485,1.581c-1.444,1.378-2.215,3.409-2.069,5.335c0.066,0.963,0.332,1.889,0.746,2.715
				c0.42,0.845,0.948,1.532,1.684,2.179L76.637,86.261z" />
    </g>
    <g id="hourhand">
        <path fill="#0D1121" d="M86.583,52.067c-0.012-1.964-2.585-2.81-2.585-2.81l-0.012-1.939c0,0,0.745-0.124,0.819-0.857
				c0.051-0.447-0.162-0.828-0.72-0.854c-0.411,0-0.614,0.501-0.414,0.651c0.054-0.385,0.541-0.294,0.521,0.051
				s-0.777,0.439-1.649-0.158c-0.995-0.734-0.721-2.363-0.696-2.811c0.026-0.446,0.46-0.782,0.771-0.508
				c0.313,0.273,0.064,0.746,0.064,0.746s0.371-0.46,0.407-0.882c0.039-0.424-0.127-0.769-0.448-0.823
				c-0.319-0.055-0.449,0.06-0.639,0.17c-0.192,0.112-0.315,0.253-0.315,0.253v-0.572c0,0,0.246-0.348,0.271-0.895
				c0.025-0.546-0.421-7.105-0.546-7.155c-0.123,0.05-0.571,6.609-0.548,7.155c0.025,0.547,0.273,0.895,0.273,0.895v0.572
				c0,0-0.123-0.141-0.315-0.253c-0.189-0.111-0.323-0.225-0.64-0.17c-0.321,0.054-0.484,0.398-0.448,0.823
				c0.036,0.421,0.41,0.882,0.41,0.882s-0.249-0.473,0.061-0.746c0.313-0.273,0.747,0.063,0.772,0.508
				c0.022,0.448,0.297,2.077-0.696,2.811c-0.871,0.597-1.629,0.503-1.648,0.158c-0.022-0.345,0.468-0.437,0.521-0.051
				c0.199-0.149-0.002-0.651-0.414-0.651c-0.559,0.025-0.771,0.407-0.723,0.854c0.077,0.734,0.822,0.857,0.822,0.857l-0.012,1.939
				c0,0-2.572,0.846-2.587,2.81c-0.012,1.965,2.587,2.685,2.587,2.685s-0.014,0.845,0.199,1.106c0.212,0.26,0.56,0.373,0.56,0.373
				l1.826,2.549l1.826-2.549c0,0,0.35-0.112,0.56-0.373c0.211-0.261,0.199-1.106,0.199-1.106S86.596,54.032,86.583,52.067z
				 M81.619,45.479c0,0,0.557,0.966,0.922,1.248c0.363,0.282,0.87,0.363,0.87,0.363v2.148c0,0-0.499,0.174-0.987,0.612
				c-0.49,0.44-0.805,1.037-0.805,1.037s-0.015-1.16,0-1.426c0.016-0.244,0.825-1.112,0.958-1.183
				c-0.133-0.055-0.942-0.823-0.958-1.013C81.604,47.058,81.619,45.479,81.619,45.479z M81.597,51.855
				c0.016-0.215,0.33-0.944,0.71-1.368c0.755-0.959,1.546-0.918,1.546-0.918s0.111,0.298-0.09,0.534
				c-0.041,0.055-0.344,0.118-0.604,0.38c-0.264,0.245-0.429,0.593-0.429,0.98c0,0.123,0.017,0.241,0.049,0.353
				c-0.006,0.011-0.009,0.024-0.016,0.029c-0.107,0.101-0.34,0.292-0.414,0.507c-0.074,0.216-0.198,0.706-0.465,0.68
				c-0.266-0.025-0.272-0.183-0.272-0.183S81.58,52.072,81.597,51.855z M79.416,47.089c0,0,0.506-0.081,0.871-0.363
				c0.365-0.281,0.92-1.248,0.92-1.248s0.017,1.579,0,1.786c-0.016,0.19-0.825,0.958-0.959,1.013
				c0.134,0.07,0.943,0.939,0.959,1.183c0.015,0.266,0,1.426,0,1.426s-0.316-0.597-0.804-1.037c-0.49-0.438-0.987-0.612-0.987-0.612
				V47.089z M78.975,49.569c0,0,0.79-0.042,1.544,0.918c0.38,0.424,0.696,1.152,0.71,1.368c0.015,0.217-0.014,0.995-0.014,0.995
				s-0.008,0.157-0.273,0.183s-0.391-0.464-0.465-0.68c-0.073-0.215-0.307-0.406-0.414-0.507c-0.008-0.005-0.011-0.018-0.016-0.029
				c0.03-0.112,0.048-0.23,0.048-0.353c0-0.387-0.163-0.735-0.428-0.98c-0.261-0.262-0.562-0.326-0.604-0.38
				C78.861,49.867,78.975,49.569,78.975,49.569z M78.74,53.851c-0.452-0.015-0.899-0.122-1.204-0.553
				c-0.503-0.641-0.264-1.327-0.098-1.568c0.123,0.615,0.664,1.077,1.313,1.077c0.487,0,0.911-0.258,1.147-0.646
				c0.056-0.063,0.085-0.106,0.085-0.106s0.708,0.595,0.178,1.23C79.957,53.58,79.193,53.871,78.74,53.851z M82.616,54.822
				c-0.126,0.024-1.203,0-1.203,0s-1.078,0.024-1.201,0c-0.061-0.066-0.082-0.522,0-0.587c0.08-0.068,1.201-1.013,1.201-1.013
				s1.12,0.945,1.203,1.013C82.698,54.3,82.672,54.756,82.616,54.822z M85.292,53.298c-0.307,0.431-0.755,0.538-1.206,0.553
				c-0.451,0.02-1.218-0.271-1.422-0.566c-0.531-0.635,0.178-1.23,0.178-1.23s0.028,0.042,0.084,0.106
				c0.237,0.388,0.661,0.646,1.146,0.646c0.65,0,1.193-0.462,1.316-1.077C85.553,51.971,85.793,52.657,85.292,53.298z" />
        <path fill="#0D1121" d="M81.413,55.959c0,0,0.076,0.415,0.174,1.141c0.097,0.726,0.222,1.761,0.324,3.005
				c0.055,0.622,0.11,1.296,0.149,2.01c0.042,0.712,0.095,1.463,0.121,2.24c0.064,1.555,0.099,3.213,0.102,4.872
				c-0.003,1.658-0.035,3.316-0.098,4.872c-0.027,0.777-0.078,1.528-0.123,2.24c-0.038,0.714-0.095,1.387-0.149,2.01
				c-0.103,1.243-0.229,2.279-0.326,3.005c-0.098,0.727-0.174,1.141-0.174,1.141s-0.076-0.414-0.174-1.141
				c-0.097-0.726-0.224-1.762-0.327-3.005c-0.054-0.623-0.111-1.296-0.148-2.01c-0.045-0.712-0.094-1.463-0.122-2.24
				c-0.064-1.556-0.097-3.214-0.099-4.872c0.002-1.659,0.036-3.317,0.101-4.872c0.028-0.777,0.079-1.528,0.122-2.24
				c0.037-0.714,0.095-1.388,0.15-2.01c0.102-1.244,0.229-2.279,0.326-3.005C81.337,56.374,81.413,55.959,81.413,55.959z" />
    </g>
    <g id="minutehand">
        <path fill="#0D1121" d="M113.439,54.993c1.048-1.068,0.111-2.904,0.111-2.904l1.033-1.055c0,0,0.471,0.333,0.902-0.022
					c0.269-0.216,0.358-0.535,0.068-0.848c-0.22-0.221-0.6-0.059-0.571,0.129c0.234-0.18,0.45,0.132,0.254,0.308
					c-0.197,0.176-0.655-0.182-0.805-0.971c-0.146-0.929,0.876-1.661,1.13-1.89c0.255-0.229,0.669-0.176,0.69,0.138
					c0.021,0.313-0.367,0.435-0.367,0.435s0.447-0.048,0.694-0.256c0.246-0.208,0.343-0.483,0.199-0.683s-0.273-0.211-0.438-0.253
					c-0.164-0.041-0.305-0.033-0.305-0.033l0.305-0.309c0,0,0.321-0.054,0.627-0.335c0.308-0.283,3.583-4.064,3.543-4.158
					c-0.093-0.04-3.853,3.263-4.133,3.57c-0.279,0.31-0.332,0.631-0.332,0.631l-0.307,0.308c0,0,0.008-0.141-0.034-0.306
					c-0.044-0.162-0.053-0.294-0.256-0.435c-0.202-0.143-0.477-0.046-0.683,0.203c-0.206,0.248-0.252,0.696-0.252,0.696
					s0.12-0.388,0.434-0.369c0.315,0.019,0.369,0.434,0.143,0.688c-0.226,0.255-0.952,1.282-1.883,1.145
					c-0.788-0.146-1.15-0.601-0.975-0.799c0.174-0.198,0.486,0.016,0.309,0.253c0.188,0.025,0.348-0.354,0.125-0.575
					c-0.314-0.287-0.633-0.194-0.846,0.075c-0.353,0.436-0.018,0.903-0.018,0.903l-1.048,1.042c0,0-1.843-0.925-2.902,0.129
					c-1.06,1.053-0.042,2.836-0.042,2.836s-0.462,0.451-0.487,0.705c-0.027,0.253,0.102,0.5,0.102,0.5l-0.379,2.355l2.354-0.396
					c0,0,0.248,0.127,0.502,0.1c0.252-0.029,0.7-0.49,0.7-0.49S112.394,56.06,113.439,54.993z M114.294,48.772
					c0,0-0.218,0.82-0.172,1.167c0.044,0.349,0.273,0.663,0.273,0.663l-1.151,1.16c0,0-0.361-0.174-0.86-0.199
					c-0.501-0.025-0.991,0.13-0.991,0.13s0.614-0.636,0.765-0.77c0.14-0.124,1.042-0.16,1.153-0.127
					c-0.043-0.102-0.069-0.949,0.026-1.06C113.438,49.617,114.294,48.772,114.294,48.772z M110.86,52.204
					c0.125-0.109,0.687-0.333,1.118-0.358c0.922-0.114,1.328,0.333,1.328,0.333s-0.102,0.221-0.338,0.24
					c-0.05,0.006-0.248-0.119-0.528-0.119c-0.274-0.008-0.549,0.091-0.759,0.301c-0.065,0.066-0.117,0.139-0.162,0.216
					c-0.008,0.003-0.016,0.009-0.025,0.008c-0.111-0.003-0.34-0.025-0.495,0.052c-0.155,0.074-0.483,0.273-0.615,0.117
					c-0.129-0.154-0.049-0.244-0.049-0.244S110.737,52.313,110.86,52.204z M112.236,48.461c0,0,0.319,0.226,0.666,0.27
					c0.35,0.043,1.167-0.18,1.167-0.18s-0.837,0.861-0.959,0.964c-0.109,0.095-0.956,0.076-1.06,0.035
					c0.034,0.109,0.007,1.012-0.117,1.15c-0.135,0.153-0.766,0.771-0.766,0.771s0.15-0.492,0.122-0.991s-0.203-0.86-0.203-0.86
					L112.236,48.461z M110.668,49.561c0,0,0.451,0.402,0.343,1.325c-0.021,0.432-0.241,0.995-0.351,1.119
					c-0.107,0.127-0.54,0.529-0.54,0.529s-0.09,0.083-0.245-0.047c-0.155-0.128,0.039-0.459,0.113-0.616
					c0.074-0.156,0.053-0.383,0.049-0.494c0-0.009,0.004-0.018,0.008-0.025c0.075-0.046,0.147-0.098,0.214-0.164
					c0.208-0.21,0.307-0.487,0.294-0.76c0-0.282-0.127-0.479-0.12-0.529C110.448,49.663,110.668,49.561,110.668,49.561z
					 M108.246,51.75c-0.234-0.25-0.42-0.549-0.353-0.946c0.072-0.614,0.569-0.857,0.786-0.899c-0.262,0.399-0.217,0.94,0.134,1.288
					c0.262,0.26,0.632,0.349,0.967,0.265c0.064-0.002,0.102-0.012,0.102-0.012s0.063,0.702-0.563,0.761
					C109.052,52.257,108.48,52.001,108.246,51.75z M109.818,54.352c-0.078-0.053-0.65-0.644-0.65-0.644s-0.593-0.566-0.647-0.645
					c0.005-0.066,0.236-0.327,0.317-0.318c0.078,0.008,1.188,0.098,1.188,0.098s0.099,1.111,0.107,1.191
					C110.144,54.113,109.885,54.348,109.818,54.352z M112.083,54.963c-0.397,0.068-0.698-0.113-0.95-0.346
					c-0.252-0.233-0.511-0.801-0.462-1.069c0.054-0.627,0.754-0.569,0.754-0.569s-0.008,0.038-0.01,0.102
					c-0.081,0.335,0.01,0.704,0.272,0.964c0.352,0.349,0.893,0.391,1.288,0.125C112.935,54.387,112.696,54.888,112.083,54.963z" />
        <path fill="#0D1121" d="M80.683,82.327c0,0,1.883-1.999,4.705-4.998c1.412-1.5,3.057-3.252,4.837-5.109
				c1.778-1.862,3.674-3.847,5.568-5.834c0.945-0.996,1.888-1.994,2.815-2.976c0.921-0.989,1.85-1.942,2.741-2.867
				c0.908-0.913,1.795-1.787,2.654-2.596c0.852-0.814,1.668-1.577,2.429-2.271c3.033-2.79,5.198-4.509,5.198-4.509l0.104,0.103
				c0,0-1.704,2.177-4.475,5.229c-0.688,0.766-1.445,1.587-2.254,2.444c-0.805,0.867-1.67,1.758-2.576,2.671
				c-0.92,0.899-1.867,1.833-2.85,2.76c-0.976,0.937-1.966,1.886-2.957,2.837c-1.975,1.907-3.945,3.817-5.797,5.607
				c-1.845,1.794-3.586,3.45-5.073,4.872c-2.982,2.844-4.968,4.74-4.968,4.74L80.683,82.327z" />
    </g>
    <g id="secondhand">
        <path fill="#0D1121" d="M109.393,136.162c0,0-1.853-3.493-4.63-8.73c-1.385-2.62-2.999-5.678-4.73-8.954
				c-1.727-3.277-3.564-6.776-5.405-10.274c-1.847-3.494-3.708-6.98-5.413-10.269c-0.836-1.654-1.659-3.242-2.41-4.767
				c-0.757-1.52-1.465-2.961-2.111-4.296c-0.652-1.331-1.226-2.563-1.746-3.648c-0.521-1.087-0.969-2.037-1.327-2.825
				c-0.729-1.568-1.126-2.475-1.126-2.475l0.088-0.046c0,0,0.503,0.852,1.354,2.358c0.433,0.75,0.944,1.667,1.526,2.724
				c0.578,1.054,1.244,2.24,1.949,3.543c0.708,1.303,1.47,2.718,2.263,4.218c0.803,1.497,1.614,3.093,2.475,4.734
				c1.679,3.302,3.431,6.844,5.197,10.38c1.773,3.532,3.545,7.064,5.207,10.377c1.657,3.312,3.2,6.408,4.524,9.058
				c2.643,5.308,4.404,8.846,4.404,8.846L109.393,136.162z" />
        <path fill="#0D1121" d="M106.965,131.248c0,0-0.026,0.013-0.072,0.03c-0.051,0.019-0.115,0.059-0.215,0.075
				c-0.048,0.01-0.101,0.027-0.161,0.034c-0.059,0.005-0.123,0.01-0.192,0.016c-0.069-0.004-0.143-0.014-0.222-0.021
				c-0.076-0.014-0.155-0.038-0.239-0.064c-0.158-0.07-0.332-0.171-0.457-0.337c-0.032-0.044-0.063-0.07-0.099-0.133
				c-0.02-0.044-0.043-0.087-0.063-0.131c-0.045-0.081-0.068-0.218-0.091-0.33c-0.026-0.228,0.014-0.472,0.117-0.7
				c0.111-0.227,0.292-0.418,0.512-0.562c0.143-0.067,0.187-0.109,0.35-0.146c0.142-0.049,0.271-0.049,0.401-0.057
				c0.264,0.01,0.516,0.095,0.726,0.238c0.191,0.157,0.354,0.353,0.415,0.569c0.034,0.074,0.053,0.208,0.063,0.316
				c0.012,0.115-0.021,0.211-0.031,0.306c-0.03,0.09-0.059,0.178-0.093,0.254c-0.044,0.072-0.083,0.142-0.125,0.199
				c-0.095,0.117-0.178,0.206-0.262,0.267c-0.073,0.068-0.147,0.102-0.189,0.131c-0.047,0.027-0.071,0.043-0.071,0.043H106.965z
				 M106.943,131.205c0,0,0.02-0.018,0.063-0.05c0.033-0.034,0.106-0.066,0.157-0.146c0.027-0.038,0.061-0.078,0.09-0.123
				c0.023-0.051,0.045-0.104,0.071-0.162c0.018-0.061,0.024-0.125,0.038-0.189c0.004-0.066,0.002-0.137,0.002-0.206
				c-0.019-0.068-0.025-0.146-0.051-0.204c-0.025-0.061-0.03-0.107-0.083-0.199c-0.065-0.14-0.173-0.245-0.29-0.346
				c-0.125-0.099-0.278-0.157-0.448-0.191c-0.083-0.002-0.175-0.014-0.248,0.004c-0.059-0.01-0.205,0.063-0.27,0.079
				c-0.158,0.088-0.3,0.211-0.398,0.369c-0.085,0.162-0.136,0.34-0.131,0.519c-0.002,0.042,0.01,0.081,0.014,0.122
				c0.005,0.04,0.008,0.083,0.03,0.129c0.019,0.047,0.034,0.091,0.053,0.135c0.006,0.021,0.038,0.069,0.056,0.102
				c0.081,0.148,0.211,0.25,0.333,0.343c0.067,0.032,0.134,0.071,0.201,0.095c0.067,0.017,0.135,0.041,0.199,0.049
				c0.064,0.002,0.125,0.004,0.182,0.008c0.057-0.006,0.107-0.022,0.153-0.028c0.093-0.01,0.159-0.061,0.206-0.077
				c0.048-0.021,0.072-0.032,0.072-0.032L106.943,131.205z" />
    </g>
    <g id="numbers">
        <path fill="#0D1121" d="m35 58.3 1 .9 1.4 1.4a251.3 251.3 0 0 1 4.2.5c1.5.2 2.5.4 3 .7h.5c.2 0 .4-.1.5-.4 0-.1.2-.2.4-.1.2 0 .3.2.2.4l-.3.5-.5.3v1c-.2.3-.3.3-.5.2-.2 0-.3-.2-.2-.4v-.5c0-.2-.1-.3-.3-.4-.6-.3-1.8-.5-3.5-.8a33.3 33.3 0 0 0-2.8-.2l1.6 1.4a57.3 57.3 0 0 0 3.3 2.7h.6l.3-.4c0-.2.2-.2.4-.1.2 0 .3.2.2.4-.2.4-.4.6-.8.8v1c-.2.3-.3.3-.5.2-.2 0-.3-.2-.2-.4v-.5c0-.2-.1-.3-.3-.4a33.9 33.9 0 0 1-5.6-4.8 156.3 156.3 0 0 1-5.2-.6c-.9-.1-1.6-.3-2.1-.6h-.6l-.3.4c0 .2-.2.2-.4.1-.2 0-.3-.2-.2-.4.2-.4.4-.6.8-.8v-1c.1-.3.3-.3.5-.2.2 0 .2.2.2.4v.5c0 .2.1.3.3.4.6.3 1.8.6 3.4.8l2.8.2a127.4 127.4 0 0 0-2.6-2.5 9.7 9.7 0 0 0-2.2-1.6h-.6l-.3.4c0 .2-.2.2-.4.2-.2-.1-.3-.3-.2-.5.2-.4.4-.6.8-.7-.2-.4-.1-.8 0-1.2.1-.2.3-.2.5-.1.2 0 .2.2.2.4-.2.4-.1.7.3 1 .7.3 1.8 1.1 3.2 2.4z" />
        <path fill="#0D1121" d="M43.4 67.7H43c-.4-.2-.5-.5-.3-.8v-.4l-.2-.2a33 33 0 0 1-5.6-4.8 148.6 148.6 0 0 1-5.1-.5 9 9 0 0 1-2.2-.6h-.3c-.1 0-.2 0-.3.2-.1.3-.3.3-.5.3h-.3c-.3-.2-.4-.5-.3-.8.2-.4.5-.6.8-.8-.1-.4 0-.7.1-1 .1-.4.4-.4.5-.4h.3c.2.1.3.2.3.4v.7c0 .1 0 .2.2.3a70.9 70.9 0 0 0 5.4 1l-1-1c-.4-.5-.8-.8-1.1-1a9.5 9.5 0 0 0-2.1-1.6H31l-.3.2c-.1.3-.3.4-.5.4l-.3-.1c-.3-.2-.4-.5-.3-.8.2-.4.4-.6.8-.8-.1-.3 0-.7.1-1 .1-.4.4-.4.5-.4h.3c.3.2.4.5.3.8-.1.3 0 .5.2.6.8.3 1.9 1.2 3.3 2.5l.9.9 1.4 1.4a302 302 0 0 1 4.2.4c1.5.2 2.5.5 3 .7.2 0 .3.1.4 0 0 0 .2 0 .2-.2.2-.3.4-.3.5-.3h.3c.4.2.5.5.3.8 0 .3-.2.5-.4.6l-.3.2-.1 1c-.2.4-.4.5-.5.5l-.3-.1a.6.6 0 0 1-.4-.3v-.5c.2-.2.1-.3.1-.3 0-.1 0-.2-.2-.3a44 44 0 0 0-4.5-.9h-1l1 1a58 58 0 0 0 3.3 2.5c.1 0 .3.1.4 0l.1-.2c.2-.3.4-.3.5-.3h.3c.4.2.5.5.3.8-.1.4-.4.6-.7.8l-.1 1c-.2.4-.4.4-.5.4zm-.2-.5h.2v.3-.3a1 1 0 0 0 0-1V66h.2c.3-.2.5-.4.6-.7v-.1l-.4.5c-.3.1-.6.2-1 0a62.1 62.1 0 0 1-5-4.1l-.4-.5h.8a117.5 117.5 0 0 1 2.8.3c1.7.2 2.9.5 3.5.8.3 0 .4.2.5.5V63.5h.1a1 1 0 0 0 0-1v-.2h.2l.4-.3.3-.4h-.1c-.2.3-.5.5-.7.5h-.6c-.6-.3-1.6-.6-3-.8a107.4 107.4 0 0 0-4.2-.4h-.1a149 149 0 0 1-2.5-2.4 14.3 14.3 0 0 0-3.1-2.4c-.6-.3-.7-.7-.5-1.3H31a1 1 0 0 0 0 .9v.2l-.2.1a1 1 0 0 0-.7.6v.1h.1l.5-.5c.2-.1.5-.1.8 0 .6.3 1.4.8 2.3 1.6a81.1 81.1 0 0 1 2.6 2.6l.5.5h-.7l-2.8-.4c-1.7-.2-2.9-.4-3.5-.7a1 1 0 0 1-.5-.6V58.4h-.1c-.2.3-.2.6 0 1v.2l-.2.1a1 1 0 0 0-.7.6v.1h.1l.5-.5c.2-.1.5-.2.8 0l2 .5a36.3 36.3 0 0 0 5.2.6h.1v.1a248.2 248.2 0 0 1 2.4 2.3c1.4 1.3 2.5 2.1 3.2 2.4.3.2.4.3.5.6v.7zM51.8 38.9a23.6 23.6 0 0 1 1 3.1 234.6 234.6 0 0 1 3.5 2.5c1.1.8 2 1.5 2.3 2 0 .2.2.3.4.3.1.1.3 0 .5-.1h.5v.5l-.6.3H59c0 .4-.3.7-.6 1l-.5-.1c-.1-.2 0-.4.1-.5.2-.1.3-.3.3-.4l-.1-.6c-.5-.5-1.3-1.3-2.7-2.3a34.6 34.6 0 0 0-2.4-1.5 180.2 180.2 0 0 0 1.2 3.4l1.1 2.5c.2.2.4.3.6.2h.4c.2-.2.3-.2.4 0 .2.2.2.3 0 .4-.3.3-.7.4-1.1.3 0 .4-.2.7-.5 1-.2.1-.4 0-.5-.1-.2-.2-.1-.3 0-.5.2-.1.3-.3.3-.4l-.1-.5c-.5-.7-1-2-1.7-3.8a29.3 29.3 0 0 1-1-3.1 152 152 0 0 1-4.2-3L46.3 38c-.1-.2-.3-.3-.5-.3l-.4.1c-.2.2-.4.1-.5 0v-.5c.4-.3.8-.3 1.2-.3 0-.4.2-.7.5-1 .2 0 .3 0 .5.2.1.1 0 .3 0 .4l-.4.5c0 .1 0 .3.2.5a82 82 0 0 0 5 4 94.8 94.8 0 0 0-1.2-3.6c-.3-1.1-.7-2-1.1-2.5-.2-.2-.3-.3-.5-.2l-.5.1c-.1.1-.3.1-.4 0-.2-.2-.1-.4 0-.5.4-.3.7-.4 1.1-.3 0-.4.2-.7.6-1l.4.1c.2.2.1.4 0 .5-.4.3-.4.6-.2 1 .5.6 1 1.8 1.7 3.7z" />
        <path fill="#0D1121" d="M54.8 51.2c-.1 0-.3 0-.4-.3-.3-.3-.2-.6 0-.8.2 0 .3-.2.3-.3l-.1-.3a29.3 29.3 0 0 1-2.6-6.9 143.7 143.7 0 0 1-4.2-2.9 8.9 8.9 0 0 1-1.7-1.6L46 38l-.4.1-.3.2c-.2 0-.3 0-.5-.3s-.2-.6.1-.8c.3-.3.7-.4 1-.4.1-.3.4-.6.7-.8l.3-.2c.1 0 .3 0 .5.3s.2.6-.1.8l-.2.3v.3a76 76 0 0 0 4.3 3.4 120 120 0 0 0-.8-2.8l-1.1-2.3-.3-.2-.3.1-.4.2c-.1 0-.3 0-.4-.3-.3-.3-.2-.6 0-.9l1-.3.7-.9h.4c.1 0 .3 0 .5.2.2.3.1.6-.2.8l-.2.3.1.3c.6.7 1.1 2 1.7 3.8l.4 1.2.6 1.9a342 342 0 0 1 3.4 2.4c1.2.8 2 1.5 2.4 2 0 .2.2.2.3.3l.3-.1.4-.2s.3 0 .4.3l.2.4c0 .2-.1.3-.3.4l-.6.4H59l-.6.9-.4.1c-.1 0-.3 0-.5-.3a.6.6 0 0 1-.1-.4c0-.2.1-.3.3-.4l.1-.3v-.3a45.7 45.7 0 0 0-3.6-3c-.3 0-.5-.2-.8-.4a258.2 258.2 0 0 0 1 2.8c.3 1 .7 1.8 1 2.3l.3.2.3-.1.4-.1c.1 0 .3 0 .4.2.2.2.2.3.2.5l-.3.4c-.3.2-.6.3-1 .3 0 .3-.3.6-.6.9l-.4.1zm0-.6h.1c.3-.1.4-.4.4-.7v-.3h.3c.4 0 .7 0 1-.2l-.1-.1a1 1 0 0 1-.6.2c-.1 0-.5 0-.8-.4a58.4 58.4 0 0 1-2.3-6l-.2-.7.6.4a133 133 0 0 1 2.3 1.6c1.4 1 2.3 1.8 2.8 2.4l.2.7c0 .2-.2.4-.4.6v.1c.3-.2.5-.4.5-.7v-.3h.8l.4-.2v-.1h-.1a1 1 0 0 1-.6.2H59l-.5-.4a97.7 97.7 0 0 0-5.8-4.4V42a191.4 191.4 0 0 1-1-3.1c-.7-1.8-1.2-3-1.7-3.7a1 1 0 0 1-.2-.7c0-.2.2-.4.4-.6v-.1a1 1 0 0 0-.5.7v.3h-.3a1 1 0 0 0-.9.2v.1l.7-.2c.2 0 .5 0 .7.4.4.5.8 1.3 1.2 2.5a81.7 81.7 0 0 1 1.1 3.5l.2.7-.6-.4-2.3-1.6c-1.4-1-2.3-1.8-2.7-2.4a1 1 0 0 1 .2-1.3v-.1h-.1c-.3.2-.4.4-.5.8v.2H46a1 1 0 0 0-.9.2v.1h.1l.6-.2c.3 0 .5 0 .7.4.4.4.9 1 1.6 1.5a32.9 32.9 0 0 0 4.2 3h.1v.1a202 202 0 0 1 1 3.1c.6 1.9 1.1 3 1.6 3.7a.9.9 0 0 1-.2 1.3z" />
        <g>
            <path fill="#0D1121" d="M61.8 44.7c.2.2.3.4.5.4l.4-.1c.2-.1.4 0 .5.1.1.2 0 .4-.1.5-.4.2-.7.2-1.1 0-.1.5-.4.8-.7 1-.2 0-.4 0-.5-.2 0-.2 0-.3.2-.5l.3-.3V45l-6.9-12.4c0-.2-.1-.3-.2-.3-.2-.2-.4-.1-.7 0l-.4-.1c-.1-.3 0-.4.1-.5l.6-.2h.5c.1-.3.3-.6.7-.8.2 0 .4 0 .5.2 0 .2 0 .3-.2.4-.2.1-.3.3-.3.5v.4l6.8 12.5z" />
            <path fill="#0D1121" d="M61.1 46.9c-.1 0-.3-.1-.5-.4 0-.1-.1-.3 0-.4 0-.2 0-.3.2-.4l.2-.2v-.3l-6.8-12.5-.2-.2h-.3l-.4.1s-.3 0-.4-.3c-.2-.4-.1-.7.2-.8.2-.2.5-.2.7-.3h.3c.2-.3.4-.5.8-.7l.3-.1c.1 0 .3 0 .5.3.2.4 0 .7-.3.8l-.2.3v.3l6.9 12.5.2.2h.3l.3-.1c.2 0 .4 0 .5.3.2.3.1.6-.2.8-.3.2-.7.2-1 .2-.2.3-.4.6-.8.8h-.3zm0-.7v.1c.3-.1.5-.4.6-.7v-.3l.4.1c.3.1.6 0 .8 0l.1-.1v-.1h-.1l-.6.1c-.2 0-.5 0-.7-.5l-6.8-12.4a1 1 0 0 1-.1-.7c0-.1.1-.4.5-.6V31a1 1 0 0 0-.6.6v.3h-.4l-.3-.1h-.1l-.5.1v.1h1l.4.4L61.5 45v.7c0 .3-.2.5-.4.6z" />
        </g>
        <path fill="#0D1121" d="M55.3 131.4h.5c.2 0 .3-.2.4-.4a46.1 46.1 0 0 1 4.3-7.2 537.2 537.2 0 0 1 2.8-4.4l1-1.5c.1-.1.3-.2.5 0A88.6 88.6 0 0 0 63 125a102.8 102.8 0 0 1-2.6 8.5c0 .2.2.3.3.4.2 0 .3.2.2.4 0 .2-.2.3-.4.2-.4-.2-.6-.4-.8-.8h-1.1c-.2-.1-.2-.3-.2-.5.1-.2.3-.3.5-.2h.5c.2 0 .3-.1.4-.3a32.5 32.5 0 0 0 1.9-5.7 775.3 775.3 0 0 1 1-3.7l1-3.2-2.6 3.9a124.5 124.5 0 0 0-4.4 7.3v.6l.3.3c.2 0 .3.2.2.4 0 .3-.2.3-.4.2-.4-.1-.6-.4-.8-.8h-1c-.3-.1-.3-.3-.2-.5 0-.2.2-.2.4-.1z" />
        <path fill="#0D1121" d="M60.7 134.8h-.3c-.3-.2-.6-.5-.7-.8l-1.1-.1c-.3-.2-.4-.5-.3-.8.2-.3.4-.4.5-.4h.3c.1.1.2.2.3.1.1 0 .2 0 .2-.2a33.3 33.3 0 0 0 2-5.7l.7-2.5.3-1.2.4-1.5-1.6 2.4a146.8 146.8 0 0 0-4.4 7.6l.2.3c.4.1.5.4.4.7-.2.4-.4.4-.6.4h-.3c-.3-.2-.6-.4-.7-.8h-1.1a.6.6 0 0 1-.3-.4v-.5c.2-.3.4-.3.5-.3h.6c.1 0 .2 0 .2-.2a46 46 0 0 1 4.3-7.2 374.5 374.5 0 0 1 3-4.4l1-1.5c0-.3.4-.3.7-.2.1 0 .4.3.3.8l-.3 1-.6 2.3a420.3 420.3 0 0 1-3.4 12c.2 0 .3.1.4.3v.4c-.2.3-.4.4-.6.4zm-.7-1.5v.3c.2.3.4.5.7.6v.3V134.2a1 1 0 0 1-.4-.5c-.1-.2-.2-.4 0-.8l.6-1.8a185.3 185.3 0 0 0 2.8-9.5l.7-2.3a41.4 41.4 0 0 1 .3-1.2h-.1l-1 1.5a66 66 0 0 1-3 4.3 115 115 0 0 0-4.7 7.7 1 1 0 0 1-.7 0H55v.1c.3.2.6.2 1 0h.2v.2l.7.7c.1-.1 0-.1 0-.1l-.4-.5c-.1-.1-.2-.4 0-.8a35.6 35.6 0 0 1 3.2-5.4 128 128 0 0 1 3.7-5.9l1-1.5-.5 1.7a457.3 457.3 0 0 0-1.2 4.4l-.8 2.6a391.2 391.2 0 0 1-1.9 5.7 1 1 0 0 1-.5.5 1 1 0 0 1-.7 0h-.1v.1H60zM58.9 116.2v-.6l-.2-.4c-.2-.1-.3-.3-.2-.4.2-.2.3-.3.5-.1.3.2.5.5.6.9.4-.1.8 0 1.1.1.2.2.2.3.1.5s-.2.2-.4.1a.7.7 0 0 0-.5-.1c-.2 0-.4.1-.5.3l-7.6 12-.1.4.3.6c.2 0 .3.2.1.4 0 .2-.2.2-.4.1l-.5-.4-.1-.5c-.4.1-.8 0-1.1-.2-.2 0-.3-.2-.1-.4 0-.2.2-.3.4-.1h.6l.4-.2 7.6-12z" />
        <path fill="#0D1121" d="m51.9 130.4-.4-.2-.5-.5-.1-.3c-.4 0-.7 0-1-.2-.4-.2-.5-.6-.3-.9l.5-.3.4.1c.1.1.2.2.3.1l.2-.2 7.6-12c.1-.1.2-.2.1-.3l-.2-.3a.6.6 0 0 1-.3-.3l.1-.5.5-.3.4.1c.3.2.5.5.6.9.4 0 .7 0 1 .2.3.1.3.3.4.4 0 .1 0 .3-.2.4-.1.3-.3.3-.4.3h-.4c0-.1-.2-.2-.3-.1l-.2.2-7.6 12-.1.2s0 .2.2.3c.3.2.4.5.2.8-.2.3-.4.4-.5.4zm-.6-1.6v.3l.2.4a1.2 1.2 0 0 0 .4.3v-.1a1 1 0 0 1-.5-.8l.2-.5 7.6-12c.2-.3.4-.4.6-.5.2 0 .5 0 .7.2l.1-.1a1 1 0 0 0-1-.2h-.2v-.2a1 1 0 0 0-.5-.7h-.1v.1l.4.5c0 .1.1.4-.1.8l-7.6 12a1 1 0 0 1-.5.4c-.2.1-.5 0-.8-.1H50v.1c.3.2.6.2.9.1h.3zM55.7 114l.2-.6c0-.2-.2-.3-.3-.4-.2-.2-.2-.3 0-.5 0-.2.2-.2.4 0 .3.2.5.5.5.9.4 0 .8 0 1.1.3.2.1.2.3 0 .5 0 .1-.2.1-.4 0a.7.7 0 0 0-.5-.1c-.2 0-.3 0-.4.2l-8.7 11.3-.2.3c0 .3 0 .5.3.6.2.2.2.3 0 .5 0 .2-.2.2-.4 0-.2 0-.3-.2-.4-.4l-.2-.5c-.3 0-.7 0-1-.3-.2-.1-.2-.3 0-.5 0-.1.2-.2.4 0 .2.1.4.2.6.1l.3-.2 8.7-11.3z" />
        <path fill="#0D1121" d="m47.5 127.4-.4-.1c-.2-.2-.4-.4-.4-.6l-.2-.3c-.3 0-.7-.1-1-.4-.3-.2-.3-.5 0-.8 0-.2.2-.3.4-.3l.4.2h.2l.3-.1 8.7-11.2.1-.3c0-.2 0-.3-.2-.3a.6.6 0 0 1-.2-.4l.1-.5c.2-.2.4-.2.5-.2l.4.1c.3.3.5.6.6 1 .3 0 .7 0 1 .3.3.2.3.5 0 .8 0 .2-.3.3-.4.3l-.4-.2h-.2l-.3.1-8.7 11.2-.1.3s0 .2.2.3c.2.2.3.6 0 .8-.1.3-.3.3-.4.3zm-.5-1.6v.3l.1.4a1.2 1.2 0 0 0 .4.4v-.1a1 1 0 0 1-.4-.9c0-.2.1-.3.3-.5l8.7-11.2c.1-.2.3-.4.6-.4.2 0 .5 0 .7.2h.1v-.1c-.3-.2-.6-.3-1-.2h-.2v-.3a1 1 0 0 0-.4-.8h-.1v.1l.3.6c0 .1.1.4-.2.8l-8.6 11.2a1 1 0 0 1-.8.4 1 1 0 0 1-.6-.2h-.1v.1c.3.2.6.3.9.2h.3zM33.6 111.3c0 .2.2.3.4.3l.5-.1a46.3 46.3 0 0 1 7.4-4 453 453 0 0 1 4.7-2.4l1.6-.8c.1 0 .3 0 .4.2.1.1 0 .3-.1.5a100 100 0 0 0-5 4.7A111.2 111.2 0 0 1 37 116v.4c.2.2.2.4 0 .5-.2.1-.3 0-.5-.1-.2-.3-.3-.7-.2-1-.4-.2-.7-.3-1-.7 0-.1 0-.3.2-.4.1-.2.3-.1.4 0 .1.2.3.3.4.3h.6a34 34 0 0 0 4.5-4l2-1.9a58.9 58.9 0 0 1 3.2-3.1 2451.7 2451.7 0 0 1-8.5 4.3 35 35 0 0 0-3.2 1.8l-.3.5.1.5c.2.2.2.3 0 .5-.2.1-.4 0-.5-.1-.2-.3-.3-.7-.2-1.1-.4 0-.8-.3-1-.6-.1-.2 0-.3.1-.4.2-.2.3-.1.5 0z" />
        <path fill="#0D1121" d="M36.8 117.1c-.1 0-.3 0-.5-.3s-.3-.6-.3-1c-.3 0-.6-.3-.9-.6a.6.6 0 0 1 0-.5c0-.1 0-.2.2-.3l.4-.2s.3 0 .4.3l.3.2.3-.1a33.6 33.6 0 0 0 4.5-4l2-1.7.8-1 1.1-1a2281.5 2281.5 0 0 1-6.9 3.6c-1.6.8-2.6 1.4-3.1 1.8l-.2.2v.3c.3.3.2.7 0 .9l-.4.1c-.2 0-.4 0-.5-.3-.2-.3-.3-.6-.3-1-.4-.1-.7-.3-.9-.6-.2-.3-.1-.6.2-.9h.3c.1 0 .3 0 .5.2l.3.2.3-.1a45.9 45.9 0 0 1 7.3-4.1 412 412 0 0 1 4.7-2.3l1.6-.8h.3c.2 0 .3 0 .5.2.1.1.3.5-.1.9l-.8.7-1.7 1.6a491 491 0 0 1-8.9 8.7c.2.3.2.6-.1.8l-.4.1zm-1.2-2.3c.2.3.4.5.8.6h.2v.3l.1.8.1.1h.1v-.1a1 1 0 0 1-.2-.6c0-.2 0-.5.4-.8l1.4-1.1a197.9 197.9 0 0 0 7.3-6.8l1.7-1.7a68.8 68.8 0 0 1 .9-.9l-1.7.8a64 64 0 0 1-4.7 2.3 120 120 0 0 0-8 4.2 1 1 0 0 1-.6-.4h-.1c.1.3.4.5.7.5h.3v.4c-.1.3 0 .6.1.8h.1a1 1 0 0 1-.2-.7c0-.1.1-.4.5-.7a36 36 0 0 1 5.4-3l2.1-1 4.2-2.2 1.5-.7-1.2 1.2-2.4 2.3-.9.8-2 1.8a833.3 833.3 0 0 1-4.5 4 1 1 0 0 1-.7.2 1 1 0 0 1-.6-.4h-.1z" />
        <g>
            <path fill="#0D1121" d="M44.3 100c.3-.1.4-.2.4-.4V99c-.2-.2-.1-.3 0-.4.3-.2.4-.1.5.1.2.4.2.7.1 1.1.4.1.7.3.9.7 0 .2 0 .4-.2.5-.2 0-.3 0-.4-.2-.1-.2-.3-.3-.4-.3h-.5L32 107.2l-.3.2v.7c.2.2.1.3 0 .4-.3.1-.4 0-.5-.1-.2-.2-.2-.4-.2-.6v-.5c-.3-.1-.6-.4-.8-.7 0-.2 0-.4.2-.5.2-.1.3 0 .4.2.1.2.3.3.5.3h.4l12.6-6.6z" />
            <path fill="#0D1121" d="M31.4 108.8c-.1 0-.3 0-.5-.3l-.2-.7v-.4c-.3-.1-.5-.4-.7-.7-.2-.3 0-.7.2-.8l.3-.1c.2 0 .4 0 .6.3 0 .2.2.3.2.3h.3l12.6-6.6c.2 0 .2-.2.2-.2v-.4c-.2-.3 0-.6.2-.8h.4s.3 0 .5.3c.1.3.2.7.1 1 .4.2.6.4.8.8 0 .1.1.3 0 .4 0 .2-.1.3-.3.4h-.3s-.3 0-.5-.3l-.2-.2h-.3l-12.6 6.6-.2.2v.8c0 .1-.1.3-.3.3l-.3.1zm-1-2.4c.2.4.4.5.7.6h.3v.4l-.2.4a1.1 1.1 0 0 0 .2.5h.1v-.1c-.2-.4-.1-.7 0-1l.4-.3 12.6-6.5c.3-.1.5-.2.8 0 .2 0 .4.2.5.4h.2c-.2-.4-.4-.6-.8-.6l-.2-.1v-.3a1 1 0 0 0 0-.9h-.1v.7c0 .2 0 .5-.4.7l-12.7 6.5a1 1 0 0 1-.6 0c-.2 0-.4 0-.6-.4h-.1z" />
        </g>
        <g>
            <path fill="#0D1121" d="M42.8 96.5c.2 0 .3-.2.4-.4v-.5c-.2-.2-.1-.3.1-.4.2-.1.4 0 .5.2v1c.3.2.6.5.7.9.1.2 0 .3-.2.4-.2 0-.3 0-.4-.2 0-.2-.2-.3-.4-.4H43L30 102.5l-.4.2v.6c0 .2 0 .4-.2.5-.2 0-.4 0-.5-.2v-1.1c-.3-.1-.6-.4-.7-.8-.1-.2 0-.3.2-.4.2-.1.3 0 .4.2l.4.4h.5l13.2-5.4z" />
            <path fill="#0D1121" d="M29.1 104c-.2 0-.4 0-.5-.3l-.1-.7v-.4c-.3-.1-.5-.4-.7-.8v-.5c0-.2.2-.2.4-.3h.2c.2 0 .4 0 .6.4 0 .2.1.2.2.2h.3l13.2-5.3.2-.2v-.8c0-.1 0-.3.3-.4h.3c.1 0 .4 0 .5.4.1.3.2.7 0 1 .4.2.6.5.8.9v.4c0 .2-.2.3-.4.3h-.2c-.2 0-.4 0-.5-.3l-.3-.2h-.3L30 102.7l-.2.2v.8c0 .1-.1.3-.3.3H29zm-.8-2.5v.1c.2.3.4.5.7.6l.2.1v.3c-.2.1-.2.3-.2.4a1 1 0 0 0 .1.5h.1a1 1 0 0 1 .1-1l.4-.3L43 97h.7c.3 0 .4.3.5.5h.1a1 1 0 0 0-.6-.7h-.2v-.3a1 1 0 0 0 .1-1h-.1v.7c0 .2-.1.5-.5.7L29.7 102a1 1 0 0 1-.4 0h-.2c-.2 0-.5-.1-.6-.5v-.1h-.1z" />
        </g>
        <g>
            <path fill="#0D1121" d="M40 84.7c.3 0 .5-.1.6-.3V84c0-.3.1-.4.4-.4.2 0 .3 0 .3.3 0 .4 0 .7-.3 1 .3.3.5.6.5 1 0 .2-.1.4-.3.4-.2 0-.4-.1-.4-.3 0-.2 0-.4-.2-.5a.7.7 0 0 0-.5-.1l-14.2 1.1-.4.1-.2.6c0 .3 0 .4-.3.4-.2 0-.3 0-.4-.3l.1-.6c0-.2.2-.3.3-.5-.3-.2-.5-.5-.5-1 0-.2 0-.3.3-.3.2 0 .3 0 .3.3s.2.4.3.5c.2.1.3.2.5.1L40 84.7z" />
            <path fill="#0D1121" d="M25 87.9c-.4 0-.6-.2-.6-.6v-.7l.2-.3c-.2-.3-.4-.6-.4-1l.1-.5.5-.2c.4 0 .6.2.6.6l.1.3h.3l14.2-1c.2 0 .3-.1.3-.2V84l.2-.5.4-.2h.1c.3 0 .6.2.6.6 0 .4 0 .7-.3 1 .3.3.4.6.5 1 0 .4-.2.6-.6.7-.4 0-.6-.3-.6-.6l-.2-.3h-.2l-14.2 1c-.2 0-.2.1-.3.2l-.1.3-.1.5-.5.2zm-.3-2.7c0 .4.2.6.5.8l.2.2-.2.2a1 1 0 0 0-.2.4 1.1 1.1 0 0 0 0 .5c0-.5.2-.7.4-.9l.5-.1L40.1 85c.2 0 .5 0 .7.2.2.2.3.4.3.7v.3-.3h.1a1 1 0 0 0-.4-.9l-.2-.1.2-.2.3-.9-.1-.3V83.9l-.2.6c-.1.2-.3.4-.7.5L25.8 86l-.5-.1c-.2-.1-.4-.3-.4-.8h-.2z" />
            <g>
                <path fill="#0D1121" d="m29.9 77.2 1.1.5 2 .8a518.7 518.7 0 0 1 4-1.2 12 12 0 0 1 3.1-.4l.5-.1c.2-.1.2-.3.2-.6 0-.2.2-.3.4-.3s.3.2.3.4l-.1.6-.4.4c.3.3.4.6.4 1 0 .2-.1.3-.4.3-.2 0-.3-.1-.3-.3l-.1-.5a.7.7 0 0 0-.5-.2c-.7 0-1.9.1-3.5.5a32.1 32.1 0 0 0-2.7.8l2 .8 1.4.6c1.1.4 2 .6 2.6.6.3 0 .5 0 .6-.2l.1-.4c0-.2.1-.3.4-.3.2 0 .3.1.3.3 0 .4-.2.8-.5 1 .3.3.4.7.4 1 0 .3-.2.4-.4.4s-.3-.1-.3-.4c0-.2 0-.3-.2-.5a.7.7 0 0 0-.4-.2 26.5 26.5 0 0 1-7-2.4 161.8 161.8 0 0 1-5 1.3l-2.2.3c-.3 0-.4 0-.6.2l-.1.4c0 .2-.2.4-.4.3-.2 0-.3 0-.3-.3 0-.4.2-.7.5-1-.3-.3-.4-.7-.4-1 0-.3.1-.4.4-.4.2 0 .3.2.3.4l.1.5.5.2a80.1 80.1 0 0 0 6.2-1.3 105.1 105.1 0 0 0-3.4-1.4c-1-.4-2-.6-2.6-.7-.2 0-.4 0-.5.2l-.2.5c0 .2-.1.3-.3.3-.3 0-.4-.1-.4-.4 0-.4.2-.7.5-1-.3-.2-.4-.6-.4-1 0-.2.2-.3.4-.3s.3.1.3.3c0 .5.2.7.7.8.8 0 2 .4 3.9 1z" />
                <path fill="#0D1121" d="M40.8 83c-.4 0-.6-.3-.6-.7V82l-.4-.1c-.8 0-2.1-.5-4-1.2a31.6 31.6 0 0 1-3-1.2 171.7 171.7 0 0 1-4.9 1.3c-.9.2-1.7.3-2.2.2l-.3.1-.2.3c0 .4-.2.6-.5.6s-.4 0-.5-.2a.6.6 0 0 1-.2-.4c0-.4.2-.7.4-1-.2-.3-.3-.7-.3-1 0-.4.3-.6.6-.6.5 0 .7.2.6.6l.1.3.3.1c.7 0 1.9-.1 3.4-.5a81 81 0 0 0 2-.6 89.2 89.2 0 0 0-2.7-1c-1-.4-1.9-.7-2.5-.7h-.3l-.1.4c0 .3-.3.6-.6.6-.4 0-.7-.3-.6-.7 0-.4.1-.7.4-1-.3-.3-.3-.6-.3-1s.2-.6.6-.6c.4 0 .6.3.6.7 0 .3 0 .4.4.4.8 0 2.1.4 4 1.2l1.1.4 1.9.8a309.5 309.5 0 0 1 4-1.1c1.4-.4 2.5-.5 3.2-.5h.3v-.4c.1-.3.3-.5.7-.5.2 0 .4 0 .5.2 0 0 .1.2 0 .4v.7l-.3.3c.2.3.3.7.3 1 0 .4-.3.6-.6.6-.4 0-.7-.3-.6-.6l-.1-.4H40c-.7-.1-1.8 0-3.4.5l-1.1.3-1 .2a316.7 316.7 0 0 0 2.8 1.1c1 .4 2 .6 2.5.7l.4-.2v-.2c0-.4.3-.6.6-.6s.4.1.5.2l.2.5c0 .3-.2.7-.5 1 .3.3.4.6.3 1 0 .3-.2.6-.6.6zm0-.6v.3-.3h.1c0-.4 0-.6-.3-.9l-.2-.2.2-.2c.3-.2.4-.5.4-.8h-.1l-.2.5c-.1.2-.3.4-.7.4h-.1a56.4 56.4 0 0 1-6-2l-.8-.3.7-.3a113.8 113.8 0 0 1 2.7-.7c1.7-.5 2.9-.7 3.6-.6a1 1 0 0 1 .9 1h.1c0-.3 0-.6-.3-.8l-.2-.3.3-.1.3-.4v-.5c-.1.4-.2.7-.5.8l-.5.1a116.5 116.5 0 0 0-7.1 1.6h-.2a234.2 234.2 0 0 1-3.1-1.3c-1.8-.7-3-1-3.9-1-.6-.1-.9-.5-.8-1v-.1H25c-.1.4 0 .6.2.9l.2.2-.2.2a1 1 0 0 0-.4.7v.1h.1l.3-.6c0-.2.3-.3.7-.3.7 0 1.6.2 2.7.6a91.5 91.5 0 0 1 3.4 1.4l.7.3-.7.2-2.7.8c-1.7.4-2.9.6-3.6.6a1 1 0 0 1-.7-.3 1 1 0 0 1-.2-.7h-.1c0 .3 0 .6.3.8l.2.2-.2.2a1 1 0 0 0-.4.8h.1c0-.2 0-.4.2-.6.1-.1.3-.3.7-.3h.1c.5 0 1.3 0 2.1-.2a33.4 33.4 0 0 0 5-1.4h.2a203.5 203.5 0 0 1 3 1.3c1.8.7 3.1 1.1 3.9 1.1l.6.3c.2.2.3.5.3.7v.1z" />
            </g>
        </g>
        <path fill="#0D1121" d="M120.2 95.8h-.6l-.3.4c0 .2-.2.3-.4.2-.2-.1-.3-.3-.2-.5.1-.3.4-.6.8-.8-.2-.3-.2-.7-.1-1 0-.3.2-.3.4-.3.2.1.3.2.2.5v.5l.4.3 13.4 4.9h.4c.2 0 .4-.2.5-.5 0-.2.2-.2.4-.1.2 0 .3.2.2.4 0 .2-.2.4-.3.5l-.5.3c.2.3.3.7.1 1 0 .3-.2.4-.4.3-.2 0-.3-.2-.2-.4v-.6a.8.8 0 0 0-.4-.3l-13.4-4.8z" />
        <path fill="#0D1121" d="M134.3 102.2h-.2a.6.6 0 0 1-.4-.3v-.5c.1-.2 0-.3 0-.4l-.2-.2L120 96h-.3l-.2.3c-.1.3-.4.4-.5.4h-.3a.6.6 0 0 1-.3-.4v-.5c0-.3.3-.6.6-.8v-1c.2-.4.5-.5.8-.4.2 0 .3.1.4.3v.8l.2.2 13.4 4.8h.3l.2-.2c.1-.4.4-.5.8-.4l.3.3v.5l-.3.6-.3.2v1c-.1.3-.3.5-.6.5zm0-.6a1 1 0 0 0 0-.9l-.1-.2.2-.2c.2 0 .3 0 .4-.2l.3-.4-.1-.1a1 1 0 0 1-.7.7 1 1 0 0 1-.6-.1l-13.3-4.8a1 1 0 0 1-.6-.5 1 1 0 0 1 0-.7V94h-.1c-.2.3-.1.6 0 1l.1.2h-.2a1 1 0 0 0-.6.7v.1h.1c0-.2.2-.4.4-.5.2-.2.5-.2.8 0l13.4 4.7.4.4c.2.2.3.4.1.8v.1zM129.7 110.4v-.6c0-.1 0-.3-.3-.4a45.5 45.5 0 0 1-7-4.7 453.8 453.8 0 0 1-5.5-4.2c-.2-.1-.2-.2-.1-.4 0-.2.3-.2.5-.1a71.9 71.9 0 0 0 6.5 2.2 111.3 111.3 0 0 1 8.4 3.1c.2 0 .3-.2.4-.3 0-.2.2-.3.4-.2.2.1.3.3.2.5-.2.3-.5.6-.9.7v1c-.2.3-.3.3-.5.2-.2 0-.3-.2-.2-.4a.6.6 0 0 0-.3-1c-.6-.3-1.7-.8-3.2-1.3l-2.4-.9-2.4-.9a66.6 66.6 0 0 1-4.3-1.5 3258 3258 0 0 1 7.7 5.6c1.5 1 2.5 1.8 3 2 .3.2.5.2.6 0l.4-.2c0-.2.2-.3.4-.2.2.1.3.3.2.5-.2.3-.5.6-.9.7v1c-.2.3-.3.3-.5.2-.2-.1-.3-.2-.2-.4z" />
        <path fill="#0D1121" d="M130 111.1h-.3a.6.6 0 0 1-.3-.4v-.5c.2-.1.2-.2.1-.3l-.2-.2a45.4 45.4 0 0 1-7-4.8 428.9 428.9 0 0 1-4.2-3.1l-1.4-1c-.2-.3-.3-.6-.1-.8.1-.3.4-.4.8-.3l1 .4 2.2.7a513.6 513.6 0 0 1 11.7 4l.5-.3h.3c.4.3.5.6.3 1-.2.3-.4.5-.8.6l-.1 1.1c-.2.3-.4.3-.5.3h-.4a.6.6 0 0 1-.3-.4v-.4c.1-.2.2-.3.1-.4l-.2-.2a34 34 0 0 0-5.5-2.2l-2.5-1a57.3 57.3 0 0 1-2.7-.8 1441.1 1441.1 0 0 1 6.3 4.5 35.7 35.7 0 0 0 3.4 2c.1 0 .2 0 .2-.2l.5-.3h.3c.4.3.5.6.3 1-.2.2-.4.5-.8.6l-.1 1.1c-.2.3-.4.3-.5.3zm0-.5v.3-.3zm0 0c.2-.3.3-.6.2-1l-.1-.2h.2c.4-.2.6-.4.7-.6v-.1h-.1c0 .2-.2.3-.4.4-.3.2-.6.1-.9 0a36.1 36.1 0 0 1-5.2-3.5l-1.8-1.4-3.8-2.8-1.4-1 1.6.6a652 652 0 0 0 4.3 1.5l2.5.9a751 751 0 0 1 5.7 2.2c.2.2.4.3.4.6V107c.2-.3.3-.6.2-1l-.1-.2h.2c.4-.2.6-.3.7-.6v-.1h-.1c0 .2-.2.3-.4.4-.3.2-.6.2-.9 0l-1.7-.7a190.4 190.4 0 0 0-9.3-3.5l-2.3-.7a93.6 93.6 0 0 1-1.2-.3l1.5 1a68.5 68.5 0 0 1 4.1 3.2 118.1 118.1 0 0 0 7.4 5.3v.7zM109.9 130c.2-.1.3-.3.3-.4l-.1-.5a45.4 45.4 0 0 1-3.9-7.5 579.2 579.2 0 0 1-2.2-4.8l-.7-1.6c-.1-.1 0-.3.1-.4.2-.1.3 0 .5.1l.7.8 1.6 1.8 2.4 2.5a110.3 110.3 0 0 1 5.9 6.7h.5c.1-.2.3-.2.4 0 .2.2.1.3 0 .5-.4.2-.8.2-1.2.2 0 .4-.2.7-.6.9-.1.1-.3 0-.4-.1v-.5c.2 0 .3-.2.4-.4l-.1-.5-2.2-2.8-1.7-1.8-1.7-2a241.4 241.4 0 0 1-3.1-3.4l2 4.3a187.8 187.8 0 0 0 3.8 7.6c.2.2.3.3.5.3l.5-.1c.2-.2.3-.1.5 0l-.1.5c-.4.2-.7.3-1.1.2-.1.4-.3.7-.6 1-.2 0-.4 0-.5-.2-.1-.1 0-.3 0-.4z" />
        <path fill="#0D1121" d="M110 130.9s-.3 0-.4-.3a.6.6 0 0 1-.1-.5l.2-.3c.2-.1.2-.2.2-.3v-.3a46 46 0 0 1-4-7.5 486.6 486.6 0 0 1-2.1-4.7l-.8-1.7c-.1-.3 0-.5.3-.7.2-.2.5-.1.8.2l.7.7 1.6 1.8a358.3 358.3 0 0 1 7.8 9l.3.2.3-.1.4-.1c.1 0 .3 0 .4.2.3.4.2.7-.1.9-.3.2-.7.3-1 .3l-.7.8-.4.1s-.3 0-.4-.3a.6.6 0 0 1-.2-.4c0-.2.2-.3.3-.4l.2-.2v-.4l-2.2-2.7-1.7-1.9-1.7-2-.9-.8-1-1.2a892 892 0 0 1 3.3 7c.8 1.6 1.4 2.7 1.8 3.2 0 .2.2.2.2.2h.3l.4-.2c.1 0 .3 0 .5.3v.5c0 .1 0 .2-.2.3-.3.3-.7.3-1 .3-.1.4-.4.7-.7.9h-.3zm0-.6h.1c.3-.1.4-.4.5-.7v-.3h.3a1 1 0 0 0 1-.1v-.1h-.1a1 1 0 0 1-.7.2c-.2 0-.4-.1-.7-.5a36 36 0 0 1-2.9-5.5 150.5 150.5 0 0 1-3-6.4l-.7-1.5 1.2 1.3a709 709 0 0 0 3 3.3l1.8 2a818.3 818.3 0 0 1 3.9 4.7c.1.2.2.4.1.7 0 .2-.2.4-.4.6v.1c.4-.2.5-.5.6-.8v-.3l.3.1.9-.1v-.2h-.1a1 1 0 0 1-.6.2c-.2 0-.5 0-.7-.4l-1.1-1.5a188.9 188.9 0 0 0-6.7-7.5l-1.6-1.7a65 65 0 0 1-.7-.8h-.2l.8 1.6a88.8 88.8 0 0 1 2.1 4.8 116 116 0 0 0 4 8.1c0 .3-.1.5-.4.6z" />
        <g>
            <path fill="#0D1121" d="M82.8 137.7c.2 0 .4 0 .5-.2l.1-.5a45.7 45.7 0 0 1 .3-8.4 361.6 361.6 0 0 1 .4-5.2l.1-1.8c0-.2.2-.3.4-.3.1 0 .3.1.3.4l.3 1 .5 2.3a379.4 379.4 0 0 1 2.7 12.1l.5.1c.2 0 .3.1.3.3 0 .3 0 .4-.3.4-.4 0-.7 0-1-.4-.3.4-.6.5-1 .6-.2 0-.3-.1-.4-.4 0-.2.1-.3.3-.3l.5-.2.2-.5-.6-3.5-.5-2.5-.6-2.5-.3-1.2-.7-3.3-.4 4.7a133 133 0 0 0-.3 8.5c0 .3.1.4.3.5l.4.2c.2 0 .4 0 .4.3 0 .2-.1.3-.3.3-.4 0-.8 0-1-.3-.3.3-.7.5-1 .5-.3 0-.4-.1-.4-.3 0-.3 0-.4.3-.4z" />
            <path fill="#0D1121" d="M82.8 138.7c-.3 0-.5-.3-.6-.6 0-.4.2-.6.6-.6l.3-.2v-.3a46.5 46.5 0 0 1 .3-8.4 439.8 439.8 0 0 1 .4-5.2l.2-1.8c0-.3.2-.5.5-.6.3 0 .6.1.7.6l.2 1 .6 2.3a476.2 476.2 0 0 1 2.4 11.7l.1.3h.4c.4 0 .6.3.6.6l-.1.5-.5.2c-.3 0-.7 0-1-.3-.3.3-.6.4-1 .4s-.6-.2-.6-.5l.1-.5.4-.2.3-.1.1-.3a34 34 0 0 0-1-5.9l-.7-2.6-.2-1.2-.4-1.5-.2 3a121.2 121.2 0 0 0-.3 8.4v.3h.4c.4 0 .6.3.7.6 0 .4-.2.7-.6.7-.4 0-.7 0-1-.3-.3.3-.7.4-1 .5h-.1zm0-.6v.3-.3c.3 0 .6-.1.8-.4l.2-.2.2.2c.3.2.5.3.8.3h.1v-.1h-.1l-.6-.2c-.1-.1-.3-.3-.4-.7a36.3 36.3 0 0 1 .2-6.3l.2-2.3.3-4.7.1-1.7.4 1.7a397.1 397.1 0 0 0 1 4.4l.6 2.6a264.5 264.5 0 0 1 1.1 6c0 .2 0 .5-.2.6a1 1 0 0 1-.6.4h-.1v.1c.4 0 .7-.2.9-.4l.2-.2.2.1c.2.3.5.4.8.3v-.1l-.6-.1c-.2-.1-.4-.3-.4-.8l-.3-1.8a230.3 230.3 0 0 0-2.1-9.7l-.6-2.4a65.3 65.3 0 0 1-.3-1.1h-.1l-.1 1.8a71.8 71.8 0 0 1-.5 5.2 113.8 113.8 0 0 0-.4 9 1 1 0 0 1-.7.4v.1z" />
        </g>
        <g>
            <path fill="#0D1121" d="M78.6 122.7c0-.3 0-.5-.2-.6a.9.9 0 0 0-.5-.1c-.2 0-.3-.2-.3-.4s.1-.3.4-.3c.4 0 .7.2 1 .5.3-.3.6-.4 1-.4.2 0 .3.1.3.4 0 .2-.1.3-.3.3l-.5.1c-.2.2-.2.3-.2.5l-.9 14.2v.4l.6.3c.3 0 .4.1.3.4 0 .2 0 .3-.3.3-.2 0-.4 0-.6-.2l-.4-.3c-.3.3-.6.4-1 .4-.3 0-.4-.2-.4-.4s.2-.3.4-.3c.3 0 .4 0 .5-.2l.2-.4.9-14.2z" />
            <path fill="#0D1121" d="m79 138.6-.7-.2-.3-.2c-.3.2-.6.3-1 .2-.2 0-.4 0-.5-.2a.6.6 0 0 1-.1-.4c0-.4.2-.6.6-.6h.3l.2-.4.8-14.1v-.4a.6.6 0 0 0-.4 0c-.4-.1-.6-.3-.6-.7 0-.4.3-.6.6-.6h.1c.4 0 .7.2 1 .4.3-.2.6-.3 1-.3l.4.2.2.5c0 .3-.3.5-.6.5l-.4.1v.3l-1 14.2.1.3.4.1.4.2.1.5c0 .3-.2.6-.6.6zm-1-1.2.2.2.3.3.5.1v.3-.4a1 1 0 0 1-.8-.5 1 1 0 0 1 0-.5l.8-14.2c0-.3.1-.5.3-.7l.6-.2h.1v-.1a1 1 0 0 0-.9.3l-.2.2-.1-.2a1 1 0 0 0-.8-.4h-.1v.1c.2 0 .4 0 .6.2.2.1.4.3.3.8l-.8 14.2c0 .2 0 .4-.2.5-.1.2-.3.4-.7.4H77v.1c.4 0 .6 0 .8-.3l.2-.2z" />
        </g>
        <path fill="#0D1121" d="M77.5 29.7a24.4 24.4 0 0 1-.8 3.3 377 377 0 0 1 1.8 3.8 12 12 0 0 1 1 3l.1.5c.1.1.3.2.6.1.2 0 .3.1.3.3 0 .2 0 .4-.3.4h-.5l-.5-.3c-.3.3-.6.5-1 .5-.2 0-.3 0-.4-.3 0-.2.1-.3.4-.4.2 0 .3 0 .4-.2l.2-.5a39 39 0 0 0-2.3-5.9 211.1 211.1 0 0 0-.9 3.6c-.2 1.1-.3 2-.2 2.6 0 .3.1.5.3.6h.4c.3 0 .4.1.4.3 0 .3 0 .4-.3.4-.4 0-.7 0-1-.3-.3.3-.6.5-1 .5-.2 0-.4 0-.4-.3 0-.2 0-.3.3-.4.2 0 .4 0 .5-.2l.1-.5A33.5 33.5 0 0 1 76 33a175.8 175.8 0 0 1-2.1-4.7c-.4-.9-.6-1.6-.6-2.1 0-.3-.2-.4-.3-.5a.8.8 0 0 0-.5-.1c-.2 0-.3-.1-.4-.3 0-.2.1-.4.3-.4.4 0 .8 0 1 .3.4-.3.7-.5 1-.5.3 0 .4 0 .4.3 0 .2 0 .3-.3.4-.2 0-.3 0-.4.2l-.2.5a80.2 80.2 0 0 0 2.3 5.9 114.1 114.1 0 0 0 .9-3.6c.2-1.1.3-2 .2-2.6 0-.3-.1-.5-.3-.5a.8.8 0 0 0-.4-.1c-.3 0-.4-.1-.4-.3 0-.3 0-.4.3-.4.4 0 .7 0 1 .3.2-.3.6-.5 1-.5.2 0 .3 0 .4.3 0 .2-.1.3-.3.3-.5 0-.7.3-.6.8 0 .8-.1 2.2-.5 4z" />
        <path fill="#0D1121" d="M74.1 42c-.3 0-.5-.2-.6-.6 0-.3.2-.6.6-.6.2 0 .2-.1.3-.2v-.3a27.4 27.4 0 0 1 1.3-7.3 158.5 158.5 0 0 1-2-4.6 9 9 0 0 1-.7-2.2l-.1-.3h-.4c-.4 0-.6-.3-.6-.6v-.5l.5-.2c.4 0 .7 0 1 .3.3-.3.7-.4 1-.5.4 0 .7.2.7.6 0 .3-.2.6-.5.6-.2 0-.3 0-.3.2l-.1.3a71.7 71.7 0 0 0 2 5.1 103.8 103.8 0 0 0 .6-2.8c.2-1.1.3-2 .2-2.6l-.1-.3h-.4c-.3 0-.6-.3-.6-.6 0-.4.2-.6.6-.7.3 0 .7 0 1 .3.2-.3.6-.4 1-.5.3 0 .6.2.6.6 0 .3-.1.6-.5.6l-.3.1v.4c0 .8-.1 2.2-.6 4.1A24.5 24.5 0 0 1 77 33a185.4 185.4 0 0 1 1.7 3.8 12 12 0 0 1 1 3l.1.4H80.1c.4 0 .7.2.7.6l-.1.5-.4.2-.7-.1-.4-.2c-.3.3-.6.4-1 .5-.3 0-.6-.2-.6-.6 0-.3.1-.6.5-.6.2 0 .3 0 .3-.2V40c0-.6-.3-1.7-1-3.3a48.2 48.2 0 0 0-.9-1.8 196 196 0 0 0-.6 2.8c-.2 1.1-.3 2-.2 2.6l.1.3h.4c.3 0 .5.3.6.6 0 .4-.2.6-.6.7-.3 0-.7 0-1-.3-.3.3-.6.4-1 .5zm0-.7v.2c.4 0 .6-.2.8-.5l.2-.2.2.2a1.1 1.1 0 0 0 1 .2V41h-.1a1 1 0 0 1-.6-.1c-.2 0-.4-.3-.5-.7a51 51 0 0 1 1-6.3l.2-.8.4.7a84.3 84.3 0 0 1 1.2 2.5c.7 1.6 1 2.7 1.1 3.5 0 .2 0 .5-.2.7a1 1 0 0 1-.6.3H78v.1h.1c.3 0 .6-.1.8-.4l.1-.2.3.2.3.2a1.2 1.2 0 0 0 .6 0v-.1l-.1-.3v.3c-.4 0-.6 0-.8-.3l-.2-.6a107.3 107.3 0 0 0-2.7-6.8 209.1 209.1 0 0 1 .7-3.3c.4-1.9.6-3.2.5-4 0-.3 0-.5.2-.7.1-.2.4-.3.6-.3h.1v-.2c-.4 0-.7.2-.9.5l-.1.2-.2-.2a1 1 0 0 0-.9-.3v.1l.6.2c.2.1.4.3.5.7 0 .7 0 1.6-.3 2.8a77.8 77.8 0 0 1-.8 3.6l-.2.7-.3-.7-1.2-2.5c-.7-1.6-1-2.7-1.1-3.5 0-.2 0-.5.2-.7.1-.2.3-.3.6-.3v-.2c-.3 0-.6.2-.8.5l-.2.2-.2-.2a1 1 0 0 0-.8-.2h-.1v.1l.1.3v-.3l.6.1c.2.1.4.3.4.7 0 .6.3 1.3.6 2.1a35.7 35.7 0 0 0 2.1 4.7v.2a281.7 281.7 0 0 1-.7 3.2c-.4 1.9-.6 3.2-.5 4 0 .2 0 .5-.2.7a1 1 0 0 1-.7.3zM83.1 39.9l.2.5.5.2c.2 0 .3.1.3.3 0 .2-.1.4-.3.4-.4 0-.8-.2-1-.5-.3.3-.7.4-1 .4-.3 0-.4-.1-.4-.4 0-.2.1-.3.4-.3.2 0 .3 0 .5-.2l.2-.4.5-14.2-.1-.4c-.1-.2-.3-.3-.6-.3-.2 0-.3-.2-.3-.4s.1-.3.3-.3l.6.1.4.4c.3-.3.6-.5 1-.4.3 0 .4 0 .4.3 0 .2-.1.3-.4.3-.2 0-.4 0-.5.2l-.2.5-.5 14.2z" />
        <path fill="#0D1121" d="M83.8 41.5c-.4 0-.8-.1-1-.4-.3.2-.6.3-1 .3s-.7-.2-.6-.6c0-.3.2-.6.5-.6h.4l.1-.4.5-14.2v-.2l-.4-.2c-.4 0-.6-.2-.6-.6 0-.4.3-.6.6-.6s.5 0 .7.2l.3.2c.3-.2.6-.3 1-.3.3 0 .4 0 .5.2l.2.4c0 .4-.3.6-.6.6H84l-.1.4-.5 14.2v.3l.4.1c.2 0 .3 0 .4.2l.2.4c0 .4-.3.6-.6.6zm-1-1.1.2.2c.2.2.5.4.8.4v.3-.5c-.2 0-.4 0-.6-.2-.2 0-.3-.3-.3-.7l.5-14.2c0-.2 0-.4.2-.6 0-.2.3-.3.7-.3v.2-.2h.1v-.2c-.4 0-.7.1-.9.3l-.2.3-.2-.3-.3-.2-.5-.2v.1c.5.1.7.3.8.5l.1.6-.5 14.2c0 .2 0 .5-.3.6a1 1 0 0 1-.6.3h-.1v.1c.4 0 .7 0 .9-.3l.2-.2zM87 40.2l.1.6.5.2c.2 0 .3.1.3.3 0 .3-.2.4-.4.3-.4 0-.7-.2-1-.5-.3.2-.6.3-1 .3-.3 0-.3-.2-.3-.4s.1-.3.4-.3l.5-.1.2-.5 1.8-14v-.5c-.1-.2-.3-.3-.6-.3-.2 0-.3-.2-.3-.4s.2-.3.4-.3l.6.2.4.4c.3-.3.6-.4 1-.3.3 0 .4.1.3.4 0 .2-.1.3-.4.2-.2 0-.4 0-.5.2l-.2.4L87 40.2z" />
        <path fill="#0D1121" d="M87.6 42h-.2c-.3-.1-.7-.3-1-.6-.2.2-.6.3-1 .3l-.4-.3a.6.6 0 0 1 0-.4c0-.4.2-.6.6-.5l.3-.1.1-.3 1.9-14v-.4l-.4-.1c-.4 0-.6-.3-.5-.7 0-.4.3-.6.7-.5.2 0 .5 0 .6.2l.3.2c.3-.2.7-.2 1-.2.3 0 .4.1.5.2l.1.5c0 .4-.3.6-.7.5h-.3l-.2.4-1.8 14 .1.4.3.1.4.2c0 .1.2.3.1.5 0 .3-.2.5-.5.5zm-1-1.3.2.2c.1.3.4.4.7.5h.1v-.1c-.3 0-.4-.2-.6-.3-.2-.1-.3-.4-.3-.8L88.5 26l.3-.6c.1-.1.4-.3.8-.2v-.1a1 1 0 0 0-.8.2l-.3.2-.1-.3a1 1 0 0 0-.4-.3l-.4-.1c-.1 0 0 .1 0 .1.4 0 .6.3.7.5v.6l-1.7 14a1 1 0 0 1-1 .9h-.1a.4.4 0 0 0 0 .1c.3 0 .6 0 .9-.2l.2-.2zM102.9 45.9c-.1.2-.2.4 0 .5l.2.4c.2.1.3.3.2.5-.2.2-.3.2-.5 0-.4-.1-.6-.4-.7-.8-.3 0-.7 0-1-.2-.3 0-.3-.2-.2-.4.1-.2.3-.3.5-.1h.5c.2 0 .3-.1.4-.3l7.3-12.2.1-.4c0-.2-.1-.4-.3-.5-.2-.1-.3-.3-.1-.4 0-.2.2-.3.4-.2l.5.4.2.5c.3-.1.7 0 1 .2.3 0 .3.2.2.4-.1.2-.3.3-.5.1h-.6l-.3.3-7.3 12.2z" />
        <path fill="#0D1121" d="m103 47.7-.4-.1c-.3-.2-.5-.5-.6-.8-.4 0-.8 0-1.1-.2-.3-.2-.4-.5-.2-.9.2-.2.3-.3.5-.3l.3.1h.3l.3-.1 7.3-12.2v-.3s0-.2-.2-.3c-.3-.2-.4-.5-.2-.8l.5-.3h.3a1.6 1.6 0 0 1 .8 1c.3-.1.7 0 1 .1.3.2.4.6.2.9l-.5.3-.3-.1h-.3l-.3.1-7.3 12.2v.3c0 .1 0 .2.2.3.3.2.4.5.2.8-.2.3-.4.3-.5.3zm0-.5v.2-.2zm-.7-1 .1.2c0 .3.2.6.5.7h.1l-.4-.5c-.1-.2-.2-.5 0-.9l7.4-12.2.4-.4.8.1h.1V33a1 1 0 0 0-.8-.1h-.3v-.2l-.3-.4a1 1 0 0 0-.4-.4v.1c.4.3.5.6.5.8 0 .2 0 .4-.2.6l-7.3 12.2a1 1 0 0 1-.5.4 1 1 0 0 1-.8-.1v.1c.3.2.5.2.9.1h.2zM115.2 57.4c-.2.1-.3.3-.3.5s0 .3.2.4v.5h-.6c-.2-.4-.3-.7-.2-1.1-.4-.1-.7-.3-1-.6l.1-.5h.5l.4.4c.2 0 .4 0 .5-.2l11.6-8.3s.2-.1.2-.3v-.6c-.2-.2-.2-.3 0-.5l.5.1.2.6v.5c.4 0 .7.2 1 .6l-.1.4c-.2.2-.4.1-.5 0-.1-.3-.3-.4-.5-.3l-.4.1-11.6 8.3z" />
        <path fill="#0D1121" d="M114.8 59.2c-.1 0-.3 0-.5-.3s-.3-.7-.3-1c-.4-.1-.6-.3-.9-.7-.2-.3-.1-.6.2-.8l.3-.1c.2 0 .3 0 .5.2.1.2.2.2.3.2h.3l11.5-8.4.2-.2-.1-.3a.6.6 0 0 1-.1-.5c0-.1 0-.3.2-.4l.4-.1c.1 0 .3 0 .5.3l.3.6v.4c.3 0 .6.3.9.6.2.3.1.6-.2.9h-.3c-.2 0-.3 0-.5-.2-.1-.2-.2-.2-.3-.2l-.3.1-11.5 8.3-.2.3v.3c.3.3.3.6 0 .8l-.4.2zm-1.3-2.3c.2.3.5.4.8.5h.3v.3c-.1.3 0 .6.1.9h.2v-.1c-.2-.2-.2-.4-.2-.6 0-.2 0-.5.4-.7l11.5-8.3.6-.2c.2 0 .5 0 .7.4h.1a1 1 0 0 0-.7-.5h-.3v-.8a1 1 0 0 0-.2-.5l-.1.1c.3.4.3.7.2 1l-.4.4L115 57c-.2.1-.5.2-.7.1s-.5-.1-.6-.4h-.1z" />
        <g>
            <path fill="#0D1121" d="M117.3 60.6c-.2.2-.3.3-.3.5v.5c.2.2.1.3 0 .4-.2.1-.4.1-.5-.1-.2-.3-.3-.7-.1-1l-1-.7c0-.2 0-.4.2-.5.2-.1.3 0 .4.1.1.2.3.3.4.3h.6l12.2-7.2.3-.3v-.7c-.2-.1-.1-.3 0-.4.3-.1.4 0 .5.1.2.2.2.4.2.6v.5c.4 0 .7.3.9.7 0 .2 0 .3-.2.4-.1.1-.3.1-.4-.1-.1-.2-.3-.3-.5-.3h-.4l-12.3 7.2z" />
            <path fill="#0D1121" d="M116.8 62.4c-.2 0-.4-.1-.6-.4l-.2-1c-.3-.1-.6-.4-.8-.7-.2-.3 0-.6.3-.8l.3-.1s.3 0 .5.3l.2.2h.3l12.3-7.3.2-.1V52c-.2-.2-.2-.3-.2-.5l.3-.3.4-.1c.1 0 .3 0 .5.3l.2.7v.3c.3.1.6.4.8.7.2.3.1.7-.2.9h-.3c-.2 0-.4 0-.5-.3l-.3-.2h-.3L117.4 61l-.2.2v.3c.2.2.2.4.2.5l-.3.4h-.3zm-1.1-2.4c.1.3.4.5.7.6h.3v.3c-.2.3-.2.6 0 .9h.1v-.1l-.1-.6c0-.2 0-.5.5-.7l12.2-7.2.6-.1c.2 0 .5 0 .7.5h.1v-.1a1 1 0 0 0-.7-.5h-.3l.1-.4v-.4a1.2 1.2 0 0 0-.1-.5h-.1v.1c.2.4.1.7 0 1a1 1 0 0 1-.3.3L117 60.3a1 1 0 0 1-.7 0 1 1 0 0 1-.6-.4h-.1z" />
        </g>
        <g>
            <path fill="#0D1121" d="M122.6 76.7c-.3 0-.5.1-.6.3v.4c0 .3-.1.4-.3.4-.3 0-.4 0-.4-.3 0-.4 0-.7.3-1-.3-.3-.5-.6-.6-1 0-.2.1-.3.4-.4.2 0 .3.1.3.3 0 .2.1.4.3.5l.5.1 14-1.7.5-.1.2-.6c0-.2 0-.4.3-.4.2 0 .3 0 .3.3v.6c0 .2-.2.3-.3.5.3.2.5.5.6 1 0 .1-.1.3-.3.3-.2 0-.4 0-.4-.3s-.1-.4-.3-.5a.8.8 0 0 0-.4-.1l-14.1 1.7z" />
            <path fill="#0D1121" d="M121.6 78c-.3 0-.5-.1-.6-.5 0-.3 0-.7.3-1-.3-.3-.5-.6-.5-1 0-.3.2-.6.5-.6.4 0 .6.1.7.5l.1.3h.3l14.1-1.6.3-.1.1-.4c0-.4.2-.6.5-.7.4 0 .7.2.7.6v.7l-.2.3c.2.3.4.6.4 1v.4l-.5.3c-.4 0-.6-.2-.7-.6l-.1-.3h-.3l-14.1 1.6c-.2 0-.3.1-.3.2v.3c0 .2 0 .3-.2.5l-.4.2zm-.3-2.6c0 .4.2.7.5.9l.2.1-.2.2a1 1 0 0 0-.2.9h.1l.1-.6c0-.2.3-.4.7-.5l14.1-1.7c.2 0 .4 0 .6.2.2 0 .4.2.5.7h.1a1 1 0 0 0-.4-.8l-.3-.2.2-.2.2-.4v-.8.3c0 .5-.2.7-.4.9a1 1 0 0 1-.5.2l-14.1 1.7a1 1 0 0 1-.7-.2 1 1 0 0 1-.3-.6v-.1h-.2z" />
        </g>
        <g>
            <path fill="#0D1121" d="M122.8 80.5c-.3 0-.4.1-.5.3l-.2.4c0 .3 0 .4-.3.4-.2 0-.3-.1-.3-.4 0-.3.1-.7.4-1-.3-.2-.5-.6-.5-1 0-.2.1-.3.4-.3.2 0 .3 0 .3.3 0 .2 0 .4.2.5l.5.2 14.2-.4.4-.1c.2-.2.2-.4.2-.6 0-.2.1-.3.4-.4.2 0 .3.1.3.4v.6l-.4.4c.3.2.5.6.5 1 0 .2-.1.3-.4.4-.2 0-.3-.2-.3-.4s0-.4-.3-.5a.8.8 0 0 0-.4-.1l-14.2.3z" />
            <path fill="#0D1121" d="M121.8 81.8c-.4 0-.6-.2-.6-.6 0-.3.1-.7.3-1l-.4-1 .2-.4.4-.2c.4 0 .6.2.7.6v.3h.4l14.2-.3h.2l.2-.4c0-.4.2-.6.6-.6.3 0 .6.2.6.6l-.1.7-.2.3c.2.3.3.6.3 1s-.2.6-.6.6c-.3 0-.6-.2-.6-.6v-.3a.6.6 0 0 0-.4 0l-14.2.3-.3.1v.3c0 .4-.3.6-.7.6zm0-.5v.3-.3l.2-.7c.1-.1.3-.3.8-.3l14.2-.4c.2 0 .4 0 .6.2.2 0 .3.3.4.7h.1a1 1 0 0 0-.4-.8l-.2-.2.2-.2.3-.3a1.1 1.1 0 0 0 0-.6c0 .5-.3.8-.5.9a1 1 0 0 1-.5.1l-14.2.4a1 1 0 0 1-.7-.2.9.9 0 0 1-.3-.7h-.1c0 .3.1.6.4.8l.2.2-.2.2a1 1 0 0 0-.4.8v.1z" />
        </g>
        <g>
            <path fill="#0D1121" d="M122.7 84.4c-.3 0-.5 0-.6.2l-.1.4c0 .2-.2.4-.4.3-.2 0-.3-.1-.3-.3 0-.4.2-.7.5-1-.3-.3-.4-.7-.4-1 0-.3.2-.4.4-.4s.3.2.3.4 0 .4.2.5l.4.2 14.2 1 .4-.1c.2-.1.3-.3.3-.6 0-.2.2-.3.4-.3s.3.1.3.4l-.1.5-.4.5c.3.2.4.6.4 1 0 .2-.2.3-.4.3s-.3-.1-.3-.4c0-.2 0-.4-.2-.5a.8.8 0 0 0-.4-.2l-14.2-1z" />
            <path fill="#0D1121" d="M137.8 86.7a.6.6 0 0 1-.4-.2l-.2-.5v-.3a.6.6 0 0 0-.3-.1l-14.3-1-.2.1-.2.3c0 .4-.2.6-.5.6s-.4 0-.5-.2a.6.6 0 0 1-.2-.4c0-.4.2-.8.5-1-.3-.3-.4-.7-.3-1 0-.4.2-.6.6-.6.2 0 .3 0 .4.2l.2.4v.3l.4.1 14.2 1h.2l.2-.4c0-.3.2-.6.5-.6h.1l.4.2.2.5-.2.7-.2.3c.2.3.3.6.2 1 0 .4-.2.6-.6.6zm0-.6v.3-.3h.1c0-.4 0-.6-.3-.9l-.2-.2.2-.2c.2 0 .3-.2.3-.3l.1-.5h-.1c0 .5-.3.7-.5.8a1 1 0 0 1-.5.1l-14.2-1a1 1 0 0 1-.6-.2 1 1 0 0 1-.3-.7v-.1h-.1c0 .4 0 .7.3 1l.2.1-.2.2a1 1 0 0 0-.4.8h.1c0-.2 0-.4.2-.6.1-.1.4-.3.8-.3l14.2 1c.2 0 .4 0 .6.2.1.1.3.3.3.8z" />
        </g>
    </g>
</svg>