<svg version="1.1"
	xmlns="http://www.w3.org/2000/svg"
	xmlns:xlink="http://www.w3.org/1999/xlink" x="0px" y="0px" viewBox="0 0 292.326 178.834">
	<g id="BG">
	</g>
	<g id="Icons">
		<g>
			<g>

				<rect x="151.812" y="96.495" transform="matrix(-0.9464 0.3229 -0.3229 -0.9464 336.3852 172.6147)" fill="#48A98F" width="4.125" height="35.428"/>
			</g>
			<g>
				<path fill="#462500" d="M206.488,18.984c0,0-0.401,3.616-1.871,3.747c-1.481,0.133-4.559-0.935-5.362,0
				c-0.804,0.937-3.616,0.012-3.616,0.012l0.672-2.77c0,0-5.488-0.049-6.557-0.989c-1.074-0.938-3.903-2.82-3.903-2.82
				s3.766,1.614,5.637,1.746c1.878,0.137,7.102-0.937,7.102-0.937L206.488,18.984z"/>
			</g>
			<g>
				<path fill="#48A98F" d="M170.47,16.307c0,0-1.073-3.347,8.704-4.287c9.776-0.938,12.985,0.94,30.932-2.951
				c17.94-3.882,15.535,6.567,14.323,7.238c-1.199,0.666-14.857,4.552-19.943,3.479c-5.098-1.073-14.468-3.88-19.956-3.616
				C179.035,16.44,170.47,16.307,170.47,16.307z"/>
			</g>
			<g>

				<rect x="191.939" y="19.198" transform="matrix(-0.9439 -0.3303 0.3303 -0.9439 364.5465 128.7554)" fill="#462500" width="2.548" height="28.41"/>
			</g>
			<g>
				<polygon fill="#DA731C" points="55.881,119.827 60.294,121.06 88.475,20.199 84.053,18.955 			"/>
			</g>
			<g>
				<polygon fill="#DA731C" points="157.17,130.358 160.583,127.298 82.039,39.786 78.626,42.852 			"/>
			</g>
			<g>
				<polygon fill="#DA731C" points="157.273,125.883 161.596,127.429 197.846,26.079 193.53,24.532 			"/>
			</g>
			<g>
				<polygon fill="#DA731C" points="84.356,26.426 83.701,30.956 190.228,46.359 190.888,41.817 			"/>
			</g>
			<g>
				<path fill="#110300" d="M60.294,121.737c0-1.75-1.413-3.165-3.163-3.165c-1.751,0-3.167,1.415-3.167,3.165
				c0,1.745,1.416,3.16,3.167,3.16C58.881,124.897,60.294,123.482,60.294,121.737z"/>
			</g>
			<g>
				<path fill="#462500" d="M83.156,20.584c-0.033,0.144,0.276,0.331,0.688,0.413l3.919,0.858c0.413,0.089,0.771,0.044,0.799-0.099
				l1.712-7.889c0.027-0.143-0.282-0.33-0.688-0.419l-3.921-0.854c-0.412-0.087-0.771-0.043-0.798,0.095L83.156,20.584z"/>
			</g>
			<g>
				<polygon fill="#462500" points="86.35,18.785 88.475,14.253 84.296,12.294 73.776,7.34 71.646,11.865 			"/>
			</g>
			<g>
				<path fill="#462500" d="M86.714,12.558c0,0,6.435,2.549,6.169,3.491c-0.269,0.935-1.343,1.177-1.343,1.177
				s0.673,0.287,0.271,0.959c-0.402,0.677-5.539,0.188-7.791-1.581C81.77,14.837,83.492,13.077,86.714,12.558z"/>
			</g>
			<g>
				<path fill="#462500" d="M67.825,8.21c0,1.811,1.475,3.28,3.287,3.28c1.806,0,3.273-1.47,3.273-3.28
				c0-1.807-1.468-3.282-3.273-3.282C69.3,4.928,67.825,6.404,67.825,8.21z"/>
			</g>
			<g>
				<path fill="#462500" d="M72.086,7.483c-0.011-0.28-0.281-0.506-0.604-0.495l-2.715,0.093C68.441,7.091,68.189,7.33,68.2,7.616
				l0.331,10.007c0.017,0.287,0.284,0.501,0.609,0.495l2.708-0.087c0.325-0.012,0.585-0.259,0.574-0.533L72.086,7.483z"/>
			</g>
			<g>
				<polygon fill="#DA731C" points="232.609,120.708 234.8,119.707 194.339,31.253 192.148,32.26 			"/>
			</g>
			<g>
				<path fill="#462500" d="M155.227,147.413c-8.697-1.883-14.235-10.498-12.343-19.19c1.597-7.365,8.231-12.711,15.75-12.711
				c1.15,0,2.313,0.115,3.442,0.364c4.21,0.919,7.815,3.418,10.15,7.04c2.334,3.628,3.109,7.943,2.19,12.16
				c-1.596,7.365-8.225,12.711-15.749,12.711C157.512,147.787,156.36,147.661,155.227,147.413z M145.5,128.785
				c-1.574,7.26,3.039,14.438,10.3,16.013c0.946,0.204,1.903,0.314,2.868,0.314c6.275,0,11.802-4.465,13.14-10.607
				c0.76-3.519,0.104-7.113-1.839-10.135c-1.943-3.029-4.948-5.108-8.462-5.874c-0.946-0.204-1.909-0.314-2.873-0.314
				C152.359,118.181,146.833,122.639,145.5,128.785z"/>
			</g>
			<g>
				<path fill="#110300" d="M163.435,131.8c0-2.687-2.174-4.86-4.86-4.86c-2.692,0-4.866,2.174-4.866,4.86
				c0,2.686,2.174,4.867,4.866,4.867C161.261,136.667,163.435,134.486,163.435,131.8z"/>
			</g>
			<g>
				<g>

					<rect x="57.788" y="67.223" transform="matrix(-0.9982 0.0603 -0.0603 -0.9982 123.2902 237.8362)" fill="#462500" width="0.534" height="107.113"/>
					<polygon fill="#462500" points="70.331,172.917 70.853,172.785 45.778,68.642 45.257,68.769 				"/>
					<polygon fill="#462500" points="79.552,169.84 80.047,169.62 36.558,71.731 36.068,71.94 				"/>
					<polygon fill="#462500" points="89.345,164.241 89.779,163.933 26.759,77.312 26.33,77.632 				"/>
					<polygon fill="#462500" points="98.097,156.353 98.454,155.94 18.011,85.213 17.652,85.615 				"/>
					<polygon fill="#462500" points="104.395,147.627 104.67,147.159 11.708,93.932 11.445,94.4 				"/>
					<polygon fill="#462500" points="108.639,138.374 108.815,137.872 7.463,103.187 7.294,103.687 				"/>
					<polygon fill="#462500" points="111.044,128.563 111.121,128.035 5.065,112.991 4.985,113.524 				"/>

					<rect x="57.787" y="67.222" transform="matrix(0.0711 0.9975 -0.9975 0.0711 174.3995 54.2821)" fill="#462500" width="0.536" height="107.114"/>
					<polygon fill="#462500" points="109.509,105.905 109.354,105.393 6.6,135.648 6.755,136.166 				"/>

					<rect x="57.786" y="67.218" transform="matrix(0.4739 0.8806 -0.8806 0.4739 136.9003 12.4218)" fill="#462500" width="0.538" height="107.122"/>
					<polygon fill="#462500" points="99.05,86.314 98.708,85.912 17.054,155.241 17.401,155.654 				"/>

					<rect x="57.791" y="67.218" transform="matrix(0.8275 0.5615 -0.5615 0.8275 77.8244 -11.7636)" fill="#462500" width="0.532" height="107.113"/>

					<rect x="57.788" y="67.22" transform="matrix(0.9403 0.3403 -0.3403 0.9403 44.5624 -12.5471)" fill="#462500" width="0.534" height="107.118"/>
				</g>
				<polygon fill="#462500" points="65.908,67.8 65.381,67.718 50.203,173.764 50.734,173.835 			"/>
			</g>
			<g>
				<path fill="#462500" d="M150.872,142.634c-0.484,1.394-0.044,1.662,0.975,0.605l5.043-5.214c1.023-1.057,2.823-1.199,4.008-0.318
				l6.061,4.524c1.178,0.881,1.553,0.557,0.831-0.736l-3.727-6.618c-0.727-1.283-0.353-3.05,0.83-3.936l6.128-4.559
				c1.173-0.875,0.964-1.332-0.474-1.013l-7.338,1.679c-1.437,0.325-2.99-0.55-3.463-1.948l-2.614-7.855
				c-0.463-1.394-0.93-1.338-1.041,0.127l-0.616,8.136c-0.109,1.464-1.409,2.67-2.88,2.682l-6.951,0.032
				c-1.476,0.011-1.592,0.518-0.249,1.14l6.303,2.917c1.338,0.617,2.032,2.258,1.543,3.645L150.872,142.634z"/>
			</g>
			<g>
				<g>
					<path fill="#462500" d="M160.71,145.375l0.121,0.975c3.337-0.705,20.731-4.458,37.935-9.188
					c33.178-9.121,38.138-14.224,38.138-16.454c0-2.283-4.189-6.104-32.237-6.104c-19.949,0-42.752,1.948-47.253,2.361
					c-0.43-0.171-0.898-0.182-1.344-0.078l-0.116-0.87l0.551-0.049c0.259-0.027,25.973-2.439,48.162-2.439
					c22.411,0,33.305,2.347,33.305,7.179c0,2.604-4.051,5.516-12.375,8.908c-6.407,2.608-15.348,5.492-26.55,8.576
					c-19.059,5.246-38.369,9.287-38.562,9.325l-0.573,0.121l-0.236-1.888c0.342-0.044,0.678-0.149,0.974-0.325
					C160.665,145.409,160.688,145.392,160.71,145.375z"/>
				</g>
			</g>
			<g>
				<path fill="#462500" d="M140.413,98.682c0,0.425,0.341,0.761,0.759,0.761h11.071c0.413,0,0.765-0.336,0.765-0.761v-3.82
				c0-0.424-0.352-0.764-0.765-0.764h-11.071c-0.418,0-0.759,0.34-0.759,0.764V98.682z"/>
			</g>
			<g>
				<rect x="233.997" y="67.212" fill="#462500" width="0.545" height="107.125"/>
				<polygon fill="#462500" points="243.36,173.56 243.883,173.467 225.178,67.993 224.649,68.082 			"/>
				<polygon fill="#462500" points="252.752,171.05 253.253,170.857 215.786,70.508 215.28,70.696 			"/>
				<polygon fill="#462500" points="262.864,166.063 263.321,165.771 205.674,75.492 205.217,75.777 			"/>

				<rect x="233.998" y="67.217" transform="matrix(-0.7062 0.708 -0.708 -0.7062 485.2167 40.2045)" fill="#462500" width="0.537" height="107.12"/>
				<polygon fill="#462500" points="278.895,150.391 279.192,149.94 189.638,91.169 189.341,91.609 			"/>
				<polygon fill="#462500" points="283.695,141.412 283.898,140.912 184.838,100.147 184.64,100.643 			"/>
				<polygon fill="#462500" points="286.689,131.762 286.8,131.233 181.849,109.797 181.738,110.32 			"/>
				<polygon fill="#462500" points="287.829,120.488 287.824,119.955 180.709,121.072 180.72,121.6 			"/>
				<polygon fill="#462500" points="286.524,109.054 286.409,108.532 182.003,132.5 182.13,133.018 			"/>
				<polygon fill="#462500" points="283.018,98.589 282.792,98.111 185.516,142.97 185.746,143.449 			"/>
				<polygon fill="#462500" points="277.287,88.868 276.963,88.439 191.251,152.692 191.576,153.116 			"/>
				<polygon fill="#462500" points="267.444,78.728 267.021,78.402 201.1,162.826 201.513,163.157 			"/>
				<polygon fill="#462500" points="255.823,71.748 255.333,71.533 212.715,169.806 213.204,170.015 			"/>
				<polygon fill="#462500" points="245.326,68.368 244.797,68.263 223.218,173.191 223.741,173.296 			"/>
			</g>
			<g>
				<path fill="#FFFCFC" d="M236.331,120.708c0-0.842-0.688-1.524-1.531-1.524c-0.842,0-1.519,0.683-1.519,1.524
				c0,0.843,0.677,1.531,1.519,1.531C235.643,122.239,236.331,121.55,236.331,120.708z"/>
			</g>
			<g>
				<path fill="#FFFCFC" d="M58.653,121.737c0-0.848-0.681-1.524-1.522-1.524c-0.837,0-1.526,0.677-1.526,1.524
				c0,0.837,0.689,1.52,1.526,1.52C57.973,123.256,58.653,122.574,58.653,121.737z"/>
			</g>
			<path fill="#462500" d="M72.163,4.972c-0.241,0.133-0.337,0.446-0.191,0.706l1.153,2.058c0.146,0.254,0.454,0.336,0.7,0.198
			l8.731-4.904c0.253-0.144,0.341-0.451,0.203-0.704l-1.161-2.06c-0.144-0.248-0.451-0.342-0.699-0.198L72.163,4.972z"/>
			<g>
				<path fill="#462500" d="M0,120.78c0-32.012,26.043-58.056,58.055-58.056c32.016,0,58.054,26.044,58.054,58.056
				c0,32.011-26.038,58.055-58.054,58.055C26.043,178.834,0,152.791,0,120.78z M5.354,120.78c0,29.061,23.639,52.698,52.7,52.698
				c29.06,0,52.698-23.638,52.698-52.698c0-29.062-23.639-52.704-52.698-52.704C28.993,68.076,5.354,91.718,5.354,120.78z"/>
			</g>
			<g>
				<path fill="#462500" d="M176.212,120.708c0-32.016,26.044-58.06,58.055-58.06c32.017,0,58.06,26.044,58.06,58.06
				c0,32.012-26.043,58.056-58.06,58.056C202.256,178.763,176.212,152.719,176.212,120.708z M181.567,120.708
				c0,29.056,23.645,52.693,52.699,52.693c29.061,0,52.698-23.638,52.698-52.693c0-29.06-23.638-52.704-52.698-52.704
				C205.212,68.003,181.567,91.648,181.567,120.708z"/>
			</g>
			<g>
				<g>
					<path fill="#48A98F" d="M162.371,135.771c-0.979-2.57-2.652-4.355-3.718-3.968s-1.137,2.807-0.158,5.377l7.536,19.784
					c0.979,2.57,2.651,4.355,3.717,3.968c1.066-0.388,1.138-2.807,0.158-5.377L162.371,135.771z"/>
				</g>
			</g>
			<g>
				<path fill="#462500" d="M177.483,159.518c-0.012-0.419-0.358-0.744-0.776-0.738l-11.07,0.23c-0.418,0.006-0.75,0.358-0.744,0.777
				l0.083,3.825c0.011,0.419,0.358,0.75,0.777,0.744l11.064-0.242c0.424-0.007,0.754-0.353,0.743-0.771L177.483,159.518z"/>
			</g>
		</g>
	</g>
</svg>
