<?xml version="1.0" encoding="utf-8"?>
<!-- Generator: Adobe Illustrator 25.1.0, SVG Export Plug-In . SVG Version: 6.00 Build 0)  -->
<svg version="1.1" xmlns="http://www.w3.org/2000/svg" xmlns:xlink="http://www.w3.org/1999/xlink" x="0px" y="0px"
	 viewBox="0 0 2804 2804" style="enable-background:new 0 0 2804 2804;" xml:space="preserve">
<style type="text/css">
	.st0{fill:#FFFFFF;}
	.st1{fill:#F4E5DE;}
	.st2{fill:#E8D8D1;}
	.st3{fill:#B4D5DE;}
	.st4{fill:#5573B7;}
	.st5{fill:#3E3C5B;}
	.st6{fill:#E2CF60;}
	.st7{fill:#8AA7C1;}
	.st8{fill:#D8CCC7;}
	.st9{fill:#24243D;}
	.st10{fill:#FFA895;}
	.st11{fill:#FF807D;}
	.st12{fill:#44242A;}
	.st13{fill:#1B1B2D;}
	.st14{fill:#3B3B63;}
	.st15{fill:#2E2E44;}
	.st16{fill:#F1F4F0;}
	.st17{fill:#415993;}
	.st18{fill:#D1E7ED;}
	.st19{fill:#FFD766;}
	.st20{fill:#471A20;}
	.st21{fill:#A45F3F;}
	.st22{fill:#8C4F37;}
	.st23{fill:#AA614F;}
	.st24{fill:#8C4E42;}
	.st25{fill:#301116;}
	.st26{fill:#FF9C43;}
	.st27{fill:#FFB345;}
	.st28{fill:none;stroke:#FFD766;stroke-width:0.25;stroke-miterlimit:10;}
	.st29{fill:#D85B52;}
	.st30{fill:#F96F5D;}
	.st31{fill:#EFAFAC;}
	.st32{fill:#F7D0D0;}
	.st33{fill:#F5CAB9;}
	.st34{fill:#F49453;}
	.st35{fill:#E8724D;}
	.st36{fill:#EFACA5;}
	.st37{fill:#472322;}
	.st38{fill:#AF3A37;}
	.st39{fill:#FFAA00;}
	.st40{fill:#FC9AA6;}
	.st41{fill:#1D1D30;}
	.st42{fill:#FC426B;}
	.st43{fill:#CC375E;}
	.st44{fill:#662D32;}
	.st45{fill:#F7BCC6;}
	.st46{fill:#54CCC0;}
	.st47{fill:#0D8380;}
	.st48{fill:#169E97;}
	.st49{fill:#8DE2D7;}
	.st50{fill:#5A2E2B;}
	.st51{fill:#894D36;}
	.st52{fill:#0C6863;}
	.st53{fill:#FFDCA5;}
	.st54{fill:#FFEAC9;}
	.st55{fill:#FFA71D;}
	.st56{fill:#AC4424;}
	.st57{fill:#E55B30;}
	.st58{fill:#323254;}
	.st59{fill:#7B472F;}
	.st60{fill:#26263F;}
	.st61{fill:#454C59;}
	.st62{fill:#BFA14D;}
	.st63{fill:#80540F;}
	.st64{fill:#E2CDC5;}
	.st65{fill:#BF7D16;}
	.st66{fill:#9ECDCC;}
	.st67{fill:#6EB5B3;}
	.st68{fill:#C5E1E0;}
	.st69{fill:#3D9C99;}
	.st70{fill:#0A6260;}
	.st71{fill:#76C1E2;}
	.st72{fill:#4E392B;}
	.st73{fill:#6394E0;}
	.st74{fill:#E2E2E2;}
	.st75{fill:#51443A;}
	.st76{fill:#3F352D;}
	.st77{fill:#846E5F;}
	.st78{fill:#D14A26;}
	.st79{fill:#69720D;}
	.st80{fill:#F9D8CD;}
	.st81{fill:#EA7C59;}
	.st82{fill:#EF9D83;}
	.st83{fill:#292F21;}
	.st84{fill:#363F2C;}
	.st85{fill:#1B1B2E;}
	.st86{fill:#5E6556;}
	.st87{fill:#293A3A;}
	.st88{fill:#1F2319;}
	.st89{fill:none;}
	.st90{fill:#8C9811;}
	.st91{fill:#9882B6;}
	.st92{fill:#693FA6;}
	.st93{fill:#8C54DD;}
	.st94{fill:#C3A7EB;}
	.st95{fill:#2F333D;}
	.st96{fill:#23262D;}
	.st97{fill:#7D7EBF;}
	.st98{fill:#5D5EAE;}
	.st99{fill:#B97D47;}
	.st100{fill:#F7A75E;}
	.st101{fill:#A376E4;}
	.st102{fill:#A58CCA;}
	.st103{fill:#E6EBFB;}
	.st104{fill:#9AAEEE;}
	.st105{fill:#6173B0;}
	.st106{fill:#964738;}
	.st107{fill:#7F3A30;}
	.st108{fill:#204874;}
	.st109{fill:#2B609B;}
	.st110{fill:#5580AF;}
	.st111{fill:#819AEA;}
	.st112{fill:#53918F;}
	.st113{fill:#287673;}
	.st114{fill:#CDD7F7;}
	.st115{fill:#778FC5;}
</style>

<g id="OBJECTS">
	<g>
		<g>
			<g>
				<polygon class="st91" points="2264.3,1088.74 2007.23,828.12 2010.58,824.81 2267.65,1085.42 				"/>
			</g>
		</g>
		<g>
			<g>
				<polygon class="st91" points="2263.35,1083.51 2412.23,749.09 2416.54,751 2267.65,1085.42 				"/>
			</g>
		</g>
		<g>
			<g>
				<polygon class="st91" points="431.45,1278.69 580.33,944.26 584.64,946.17 435.75,1280.6 				"/>
			</g>
		</g>
		<g>
			<g>
				<g>
					<circle class="st92" cx="2267.65" cy="1088.74" r="68.88"/>
				</g>
			</g>
			<g>
				<g>
					<circle class="st93" cx="2267.65" cy="1088.74" r="42.15"/>
				</g>
			</g>
		</g>
		<g>
			<g>
				<g>
					<circle class="st92" cx="2412.08" cy="757.19" r="22.21"/>
				</g>
			</g>
			<g>
				<g>
					<circle class="st93" cx="2412.08" cy="757.19" r="13.59"/>
				</g>
			</g>
		</g>
		<g>
			<g>
				<g>
					<circle class="st92" cx="431.45" cy="1276.13" r="22.21"/>
				</g>
			</g>
			<g>
				<g>
					<circle class="st93" cx="431.45" cy="1276.13" r="13.59"/>
				</g>
			</g>
		</g>
		<g>
			<g>
				<rect x="1828.1" y="507.03" class="st94" width="424.1" height="53.64"/>
			</g>
			<g>
				<rect x="1828.1" y="581.48" class="st93" width="275.75" height="53.64"/>
			</g>
			<g>
				<rect x="1828.1" y="655.92" class="st93" width="424.1" height="53.64"/>
			</g>
			<g>
				<rect x="1828.1" y="730.37" class="st94" width="104.06" height="53.64"/>
			</g>
		</g>
		<g>
			<path class="st1" d="M646.97,2305.79c0,0,188.15-43.85,127.56-254.17c-60.59-210.32-243.87-441.08-103.2-711.95
				c140.67-270.88,477.1-653.54,796.78-598.53c319.69,55.01,55.01,394.63,113.21,459.2c58.2,64.58,570.89-43.05,696.01,176.98
				c125.13,220.03-160.01,476.06-152.57,648.2c7.44,172.14,251.39,286.96,251.39,286.96L646.97,2305.79z"/>
		</g>
		<g>
			<polygon class="st95" points="1144.23,1563.32 1172.64,1893.9 1192.61,2250.38 1261.76,2250.38 1280.96,1644.21 1291.06,1644.21 
				1410.03,2250.38 1473.8,2250.38 1458.43,1976.87 1449.36,1559.28 1427.7,1541.27 1234.87,1546.65 			"/>
		</g>
		<g>
			<polygon class="st96" points="1144.23,1563.32 1450.43,1608.86 1449.36,1559.28 1423.09,1529.74 1198.76,1529.74 			"/>
		</g>
		<g>
			<polygon class="st96" points="1291.06,1644.21 1253.3,1608.86 1280.96,1644.21 			"/>
		</g>
		<g>
			<polygon class="st61" points="1182.62,2232.7 1189.54,2256.52 1267.13,2256.52 1270.98,2227.33 			"/>
		</g>
		<g>
			<polygon class="st61" points="1393.9,2227.33 1403.88,2256.52 1476.87,2256.52 1482.25,2227.33 			"/>
		</g>
		<g>
			<path class="st9" d="M1202.6,2256.52c0,0-9.99,10.63-19.97,16.46c-9.99,5.82-66.07,12.74-62.23,45.77h139.06
				c0,0-1.54-33.93,0-45.77c1.54-11.85,0-16.46,0-16.46H1202.6z"/>
		</g>
		<g>
			<path class="st9" d="M1469.82,2256.52c0,0,9.99,10.63,19.97,16.46c9.99,5.82,66.07,12.74,62.23,45.77h-139.06
				c0,0,1.54-33.93,0-45.77c-1.54-11.85,0-16.46,0-16.46H1469.82z"/>
		</g>
		<g>
			<polygon class="st96" points="1262.49,2227.33 1263.68,2189.69 1190.17,2232.25 			"/>
		</g>
		<g>
			<polygon class="st96" points="1405.51,2227.33 1399.5,2196.7 1473.8,2227.33 			"/>
		</g>
		<g>
			<path class="st97" d="M1424.95,1272.91l30.09,288.24l-320.4,4.96c0,0,8.23-33.6,2.45-45.1c-5.72-11.43,4.15-27.01,4.15-27.01
				l6.16-221.1l-72.67-8.54c0,0,16.71-96.29,42.08-135.8c38.32-59.8,115.45-57.35,115.45-57.35h35.93l72.17,1.63
				c2.01,0,4.02,0.06,5.97,0.25c136.87,7.03,145.91,192.01,145.91,192.01L1424.95,1272.91z"/>
		</g>
		<g>
			<path class="st9" d="M1336.5,1135.86h-97.98c-6.82,0-12.34,5.52-12.34,12.34v139.7c0,6.81,5.52,12.34,12.34,12.34h97.98
				c6.81,0,12.34-5.53,12.34-12.34v-139.7C1348.84,1141.38,1343.31,1135.86,1336.5,1135.86z"/>
		</g>
		<g>
			<polygon class="st98" points="1142.64,1436.94 1211.25,1279.12 1142.64,1376.24 			"/>
		</g>
		<g>
			<polygon class="st98" points="1363.25,1278.23 1442.07,1436.94 1436.01,1361.61 			"/>
		</g>
		<g>
			<polygon class="st98" points="1147.37,1272.91 1165.92,1183.37 1160.36,1272.91 1146.89,1286.27 			"/>
		</g>
		<g>
			<polygon class="st98" points="1424.96,1272.91 1403.88,1192.74 1407.49,1269.49 1425.42,1286.27 			"/>
		</g>
		<g>
			<path class="st10" d="M1081.43,1265.15l65.94,7.77l-0.47,13.35l56.14-51.45c0,0-2.81-29.94,0.01-34.53
				c2.82-4.58,10.93-17.63,19.04-19.39c8.11-1.76,34.9,15.37,34.9,15.37s-2.47,8.96-10.93,10.02c-8.46,1.06-17.27,0.35-17.27,0.35
				l-1.89,37.34c0,0-43.76,112.16-103.16,157.9C1123.73,1401.88,1074.73,1355.75,1081.43,1265.15z"/>
		</g>
		<g>
			<path class="st11" d="M1146.89,1286.27l-54.19,64.2c0,0-17.98-46.15-11.28-85.32l65.94,7.77L1146.89,1286.27z"/>
		</g>
		<g>
			<polygon class="st11" points="1228.78,1206.64 1212.92,1203.47 1228.26,1216.89 			"/>
		</g>
		<g>
			<path class="st10" d="M1489.53,1265.15l-64.57,7.77l0.46,13.35l-54.98-51.45c0,0,2.76-29.94-0.01-34.53
				c-2.76-4.58-10.7-17.63-18.64-19.39c-7.94-1.76-34.18,15.37-34.18,15.37s2.42,8.96,10.7,10.02c8.29,1.06,16.92,0.35,16.92,0.35
				l1.85,37.34c0,0,43.86,115.33,101.03,157.9C1448.11,1401.88,1496.09,1355.75,1489.53,1265.15z"/>
		</g>
		<g>
			<path class="st11" d="M1425.42,1286.27l53.07,64.2c0,0,16.09-42.66,11.05-85.32l-64.57,7.77L1425.42,1286.27z"/>
		</g>
		<g>
			<polygon class="st11" points="1345.23,1206.64 1360.76,1203.47 1345.74,1216.89 			"/>
		</g>
		<g>
			<g>
				<path class="st64" d="M2543.38,2318.75H373.06c-3.47,0-6.28-2.81-6.28-6.28c0-3.47,2.81-6.28,6.28-6.28h2170.33
					c3.47,0,6.28,2.81,6.28,6.28C2549.67,2315.94,2546.86,2318.75,2543.38,2318.75z"/>
			</g>
		</g>
		<g>
			<path class="st50" d="M1227.89,941.63l-13.48-12.69c0,0-23.27-22.97-15.07-57.11c10.47-43.63,81.7-41.25,111.05-14.28
				c0,0,37.64-9.15,60.35,21.42c27.24,36.67,17.27,131.68-46.86,143.58C1252.88,1035.71,1227.89,941.63,1227.89,941.63z"/>
		</g>
		<g>
			<path class="st10" d="M1357.19,949.56c-7.93-1.59-16.66,16.66-16.66,16.66s-23.01-19.22-4.06-46c0,0-37.98,17.44-71.3-16.67
				c0,0-15.87,29.01-50.77,25.38c0,0-11.11,65.84,5.55,91.22c16.66,25.38,40.45,16.66,40.45,16.66l-5.74,34.41h-18.35
				c0,0,4.08,41.2,51.19,41.2c36.24,0,53.01-26.95,58.79-39.32c-1.95-0.19-3.96-0.25-5.97-0.25l-10.99-0.25l-5.48-50.07
				c0,0-3.17-19.04,9.52-30.93c0,0,19.83,8.73,31.73-11.9C1377.02,959.08,1365.12,951.15,1357.19,949.56z"/>
		</g>
		<g>
			<polygon class="st11" points="1260.42,1036.81 1306.42,1021.74 1255.81,1064.47 			"/>
		</g>
		<g>
			<path class="st50" d="M1210.78,982.87c0,0-8.41,48.91,24.25,60.23c32.66,11.33,76.7-15.01,87.26-30.12
				c10.86-15.55,25.15-65.16,23-66h-13.48l-9.52,41.08C1322.29,988.08,1255.81,978.07,1210.78,982.87z"/>
		</g>
		<g>
			<path class="st9" d="M1287.15,954.99c-0.2,5.95,4.43,10.93,10.34,11.13c5.91,0.2,10.86-4.46,11.06-10.41
				c0.2-5.95-4.43-10.93-10.34-11.13C1292.3,944.38,1287.35,949.04,1287.15,954.99z"/>
		</g>
		<g>
			<path class="st9" d="M1226.86,954.99c-0.2,5.95,4.43,10.93,10.34,11.13c5.91,0.2,10.86-4.46,11.06-10.41
				c0.2-5.95-4.43-10.93-10.34-11.13C1232.01,944.38,1227.06,949.04,1226.86,954.99z"/>
		</g>
		<g>
			<path class="st11" d="M1266.49,982.59c-0.13,0-0.27-0.02-0.4-0.04c-7.46-1.45-12-4.6-13.49-9.35c-3.14-9.99,9.18-22.9,9.71-23.45
				c0.8-0.82,2.12-0.84,2.93-0.05c0.83,0.8,0.85,2.11,0.05,2.94c-3.11,3.22-10.73,12.98-8.73,19.32c1.01,3.18,4.48,5.37,10.32,6.52
				c1.13,0.22,1.86,1.31,1.64,2.43C1268.33,981.9,1267.46,982.59,1266.49,982.59z"/>
		</g>
		<g>
			<path class="st37" d="M1310.7,930.46c-0.08,0-0.16-0.01-0.24-0.02l-22.07-2.54c-1.14-0.13-1.96-1.16-1.83-2.3
				c0.13-1.14,1.18-1.92,2.3-1.83l22.07,2.54c1.14,0.13,1.96,1.16,1.83,2.3C1312.63,929.68,1311.73,930.46,1310.7,930.46z"/>
		</g>
		<g>
			<path class="st37" d="M1228.19,932.04c-0.9-0.05-1.7-0.69-1.91-1.61c-0.26-1.12,0.44-2.23,1.56-2.49l16.03-3.67
				c1.11-0.27,2.23,0.44,2.49,1.56c0.26,1.12-0.44,2.23-1.56,2.49l-16.03,3.67C1228.57,932.03,1228.38,932.05,1228.19,932.04z"/>
		</g>
		<g>
			<path class="st0" d="M1243.94,996.36l42.6-2.19C1286.54,994.17,1266.64,1020.16,1243.94,996.36z"/>
		</g>
		<g>
			<g>
				<path class="st99" d="M2466.77,1812.66l-1.06,56.73l-14.01-44.79c-76.44,54.98-86.74,142.62-85.88,191.31
					c-0.78,27.47,4.65,173.78,4.65,173.78h12.83c-7.22-94.62,12.29-174.4,12.29-174.4c11.96-15.18,24.72-30.3,37.83-45.11
					c2.76-3.12,5.54-6.22,8.34-9.32c21.02-23.27,42.73-45.63,63.6-66.17c64.61-63.6,120.81-109.58,120.81-109.58
					C2527.5,1770.16,2466.77,1812.66,2466.77,1812.66z"/>
			</g>
			<g>
				<path class="st100" d="M2373.72,2089.96c0.86-48.69-9.43-136.34-85.87-191.31l-14.01,44.79l-1.05-56.73
					c0,0-60.73-42.49-159.41-27.53c0,0,56.2,45.98,120.81,109.57c20.87,20.54,42.58,42.9,63.6,66.17c2.79,3.09,5.57,6.19,8.34,9.32
					c13.11,14.82,25.87,29.93,37.83,45.11c0,0,19.51,79.78,12.29,174.4h12.83C2369.07,2263.74,2374.49,2117.43,2373.72,2089.96z"/>
			</g>
			<g>
				<path class="st100" d="M2479.53,1935.44l-1.05,56.73l-14.01-44.79c-76.44,54.98-86.74,142.62-85.88,191.31
					c-0.78,27.47,4.65,173.78,4.65,173.78h12.83c-7.22-94.62,12.29-174.4,12.29-174.4c11.96-15.18,24.72-30.29,37.83-45.11
					c2.76-3.12,5.54-6.22,8.34-9.32c21.02-23.27,42.73-45.63,63.59-66.17c64.61-63.6,120.81-109.58,120.81-109.58
					C2540.26,1892.95,2479.53,1935.44,2479.53,1935.44z"/>
			</g>
			<g>
				<path class="st58" d="M2464.69,2136.18h-81.79h-18.28h-81.79c-2.48,109.17,50.03,176.15,50.03,176.15h31.75h18.28h31.75
					C2414.66,2312.33,2467.17,2245.35,2464.69,2136.18z"/>
			</g>
		</g>
		<g>
			<g>
				<g>
					<path class="st91" d="M1440.21,719.37l0.69,1.1l213.32,342.97l0.02,0.43l22.18,468.77l-292.24,47.12l-0.41-0.15l-411.39-152.23
						l-0.27-0.3L786.06,1217.9l165.86-336.06l0.65-0.21L1440.21,719.37z M1650.97,1064.45L1438.8,723.29L954.25,884.53
						l-164.27,332.85l184.3,207.2l410.22,151.8l288.49-46.51L1650.97,1064.45z"/>
				</g>
			</g>
			<g>
				<g>
					<path class="st91" d="M1680.29,476.7l0.32,0.34l329.87,348.72l0.06,0.56l46.02,480.02l-0.33,0.49l-237.66,348.55l-0.35,0.19
						l-425.95,229.13l-0.68-0.24L770.9,1669.89l-0.29-0.64l-142.38-310l-47.06-411.97l0.3-0.48L837,531.84l0.53-0.19l439.26-161.75
						l0.5,0.13L1680.29,476.7z M2007.33,827.18l-328.78-347.55l-401.6-106.29L839.2,534.53L584.56,948.04l46.9,410.58l141.84,308.62
						l618.67,213.87l424.33-228.26l236.87-347.39L2007.33,827.18z"/>
				</g>
			</g>
			<g>
				<g>
					
						<rect x="1356.54" y="353.63" transform="matrix(0.9067 -0.4217 0.4217 0.9067 -103.778 623.6979)" class="st91" width="3.29" height="385.68"/>
				</g>
			</g>
			<g>
				<g>
					<path class="st91" d="M1676.34,481.77l151.66,410.92l-1.66,435l227.54-21.07l0.15,1.64l-227.7,21.09l-1.25,327.37l-1.33-1.1
						l-150.28-124.04l0.47-0.63l150.76-202.63l1.67-435.49L1674.8,482.34L1676.34,481.77z M1823.46,1653.24l1.23-322.16
						l-148.97,200.22L1823.46,1653.24z"/>
				</g>
			</g>
			<g>
				<g>
					<g>
						<circle class="st92" cx="2053.96" cy="1307.43" r="31.29"/>
					</g>
				</g>
				<g>
					<g>
						<circle class="st93" cx="2053.96" cy="1307.43" r="19.15"/>
					</g>
				</g>
			</g>
			<g>
				<g>
					<g>
						<circle class="st92" cx="1651.14" cy="1064.32" r="50.15"/>
					</g>
				</g>
				<g>
					<g>
						<circle class="st93" cx="1651.14" cy="1064.32" r="30.69"/>
					</g>
				</g>
			</g>
			<g>
				<g>
					<g>
						<circle class="st92" cx="1441.63" cy="722.58" r="18.77"/>
					</g>
				</g>
				<g>
					<g>
						<circle class="st93" cx="1441.63" cy="722.58" r="11.48"/>
					</g>
				</g>
			</g>
			<g>
				<g>
					<g>
						<circle class="st101" cx="771.93" cy="1668.46" r="18.94"/>
					</g>
				</g>
				<g>
					<g>
						<circle class="st93" cx="771.93" cy="1668.46" r="11.59"/>
					</g>
				</g>
			</g>
			<g>
				<g>
					<polygon class="st91" points="1675.39,481.25 1675.75,482.86 1360.91,553.22 842.34,536.74 842.39,535.1 1360.86,551.57 					
						"/>
				</g>
			</g>
			<g>
				<g>
					<g>
						<circle class="st101" cx="842.36" cy="535.92" r="28.92"/>
					</g>
				</g>
				<g>
					<g>
						<circle class="st93" cx="842.36" cy="535.92" r="17.7"/>
					</g>
				</g>
			</g>
			<g>
				<g>
					<g>
						<circle class="st101" cx="1675.57" cy="482.06" r="40.8"/>
					</g>
				</g>
				<g>
					<g>
						<circle class="st93" cx="1675.57" cy="482.06" r="24.97"/>
					</g>
				</g>
			</g>
			<g>
				<g>
					<polygon class="st91" points="1360.42,551.76 1361.46,553.03 950.43,889.07 950.21,889.11 584.35,948.26 788.67,1217.14 
						787.37,1218.13 581.39,947.07 582.74,946.85 949.74,887.52 					"/>
				</g>
			</g>
			<g>
				<g>
					<polygon class="st91" points="1286.55,376.12 1287.26,376.8 1828.1,892.41 1827.98,892.88 1675.39,1531.63 1673.8,1531.24 
						1826.28,892.95 1286.84,378.67 950.77,888.75 949.4,887.84 					"/>
				</g>
			</g>
			<g>
				<g>
					
						<rect x="1649.93" y="1076.71" transform="matrix(0.3431 -0.9393 0.9393 0.3431 247.3641 2508.7422)" class="st91" width="534.56" height="1.64"/>
				</g>
			</g>
			<g>
				<g>
					<polygon class="st91" points="1821.61,1664.52 1821.28,1666.13 1384.18,1578.87 880.37,1540.74 880.18,1540.6 629.38,1359.73 
						630.34,1358.4 880.95,1539.13 1384.4,1577.24 					"/>
				</g>
			</g>
			<g>
				<g>
					<polygon class="st91" points="792.19,1220.03 891.24,1545.22 1392.57,1882.22 1391.65,1883.58 889.84,1546.26 889.75,1545.98 
						790.62,1220.5 					"/>
				</g>
			</g>
			<g>
				<g>
					<circle class="st92" cx="1824.56" cy="1329.22" r="7.9"/>
				</g>
			</g>
			<g>
				<g>
					<circle class="st92" cx="1828.01" cy="893.16" r="7.9"/>
				</g>
			</g>
			<g>
				<g>
					<circle class="st92" cx="1176.81" cy="545.2" r="11.66"/>
				</g>
			</g>
			<g>
				<g>
					<circle class="st92" cx="1384.34" cy="1578.06" r="14.75"/>
				</g>
			</g>
			<g>
				<g>
					<circle class="st92" cx="974.53" cy="1426.67" r="14.75"/>
				</g>
			</g>
			<g>
				<g>
					<circle class="st92" cx="885.02" cy="1542.5" r="28.37"/>
				</g>
			</g>
			<g>
				<g>
					<circle class="st92" cx="1447.79" cy="532.43" r="8.25"/>
				</g>
			</g>
			<g>
				<g>
					<circle class="st92" cx="1360.52" cy="553.1" r="8.25"/>
				</g>
			</g>
			<g>
				<g>
					<g>
						<circle class="st101" cx="791.41" cy="1220.26" r="50.15"/>
					</g>
				</g>
				<g>
					<g>
						<circle class="st93" cx="791.41" cy="1220.26" r="30.69"/>
					</g>
				</g>
			</g>
			<g>
				<g>
					<g>
						<circle class="st92" cx="950.09" cy="888.29" r="18.77"/>
					</g>
				</g>
				<g>
					<g>
						<circle class="st93" cx="950.09" cy="888.29" r="11.48"/>
					</g>
				</g>
			</g>
			<g>
				<g>
					<g>
						<circle class="st92" cx="580.65" cy="951.44" r="30.69"/>
					</g>
				</g>
				<g>
					<g>
						<circle class="st93" cx="580.65" cy="951.44" r="18.78"/>
					</g>
				</g>
			</g>
			<g>
				<g>
					<g>
						<circle class="st92" cx="1286.7" cy="377.39" r="25.15"/>
					</g>
				</g>
				<g>
					<g>
						<circle class="st93" cx="1286.7" cy="377.39" r="15.39"/>
					</g>
				</g>
			</g>
			<g>
				<g>
					<g>
						<circle class="st92" cx="2008.9" cy="826.47" r="15.13"/>
					</g>
				</g>
				<g>
					<g>
						<circle class="st93" cx="2008.9" cy="826.47" r="9.26"/>
					</g>
				</g>
			</g>
			<g>
				<g>
					<g>
						<circle class="st101" cx="1674.59" cy="1531.43" r="50.15"/>
					</g>
				</g>
				<g>
					<g>
						<circle class="st93" cx="1674.59" cy="1531.43" r="30.69"/>
					</g>
				</g>
			</g>
			<g>
				<g>
					<g>
						<circle class="st92" cx="1824.27" cy="1654.98" r="30.69"/>
					</g>
				</g>
				<g>
					<g>
						<circle class="st93" cx="1824.27" cy="1654.98" r="18.78"/>
					</g>
				</g>
			</g>
			<g>
				<g>
					<g>
						<circle class="st92" cx="1392.11" cy="1882.9" r="36.57"/>
					</g>
				</g>
				<g>
					<g>
						<circle class="st93" cx="1392.11" cy="1882.9" r="22.38"/>
					</g>
				</g>
			</g>
		</g>
		<g>
			<path class="st92" d="M657.79,1940.08l-149.74-132.44c58.9-66.95,155.55-86.41,235.65-48.16L657.79,1940.08z"/>
		</g>
		<g>
			<path class="st102" d="M497.49,1862.07c-22.96,33.77-34.18,72.11-34.57,110.07c-0.76,64.76,29.94,128.6,87.53,167.75
				c91.35,62.1,215.71,38.39,277.81-52.96c62.1-91.35,38.39-215.71-52.96-277.81c-8.56-5.82-17.43-10.88-26.52-15.21l-85.91,180.6
				l-149.74-132.44C507.51,1848.32,502.31,1854.97,497.49,1862.07z"/>
		</g>
		<g>
			<g>
				<rect x="1506.67" y="1757.27" class="st94" width="597.64" height="365.62"/>
			</g>
			<g>
				<rect x="1506.67" y="1757.27" class="st93" width="597.64" height="31.37"/>
			</g>
			<g>
				<circle class="st92" cx="1522.2" cy="1771.84" r="4.44"/>
			</g>
			<g>
				<circle class="st92" cx="1542.47" cy="1771.84" r="4.44"/>
			</g>
			<g>
				<circle class="st92" cx="1562.75" cy="1771.84" r="4.44"/>
			</g>
		</g>
		<g>
			<path class="st94" d="M2402.9,1637.6l33.63-58.38l-24.23-13.95c1.28-6.53,1.99-13.26,1.99-20.16c0-6.9-0.71-13.64-2-20.18
				l24.22-13.96l-33.64-58.38l-24.34,14.02c-10.15-8.91-22.02-15.86-35.06-20.32v-28.03h-67.37v28.03
				c-13.05,4.46-24.92,11.42-35.07,20.33l-24.34-14.02l-33.63,58.38l24.23,13.95c-1.28,6.53-1.99,13.26-1.99,20.16
				c0,6.9,0.71,13.64,2,20.18l-24.22,13.96l33.64,58.38l24.33-14.02c10.15,8.91,22.02,15.86,35.06,20.32v28.02h67.37v-28.02
				c13.05-4.46,24.92-11.42,35.07-20.33L2402.9,1637.6z M2257.31,1545.1c0-28.94,23.55-52.49,52.49-52.49
				c28.95,0,52.49,23.55,52.49,52.49c0,28.94-23.55,52.49-52.49,52.49C2280.86,1597.59,2257.31,1574.04,2257.31,1545.1z"/>
		</g>
		<g>
			<path class="st94" d="M2475.67,820.37l22.97-39.88l-16.55-9.53c0.88-4.46,1.36-9.06,1.36-13.77c0-4.72-0.49-9.32-1.36-13.78
				l16.55-9.53L2475.66,694l-16.62,9.58c-6.94-6.08-15.04-10.83-23.95-13.88v-19.14h-46.02v19.14c-8.91,3.05-17.02,7.8-23.96,13.89
				l-16.62-9.57l-22.97,39.88l16.55,9.53c-0.88,4.46-1.36,9.06-1.36,13.77c0,4.72,0.49,9.32,1.36,13.78l-16.55,9.53l22.97,39.87
				l16.62-9.58c6.94,6.08,15.04,10.84,23.95,13.88v19.14h46.02v-19.14c8.91-3.05,17.02-7.8,23.96-13.89L2475.67,820.37z
				 M2376.23,757.19c0-19.77,16.08-35.86,35.86-35.86c19.77,0,35.86,16.09,35.86,35.86s-16.08,35.86-35.86,35.86
				C2392.31,793.05,2376.23,776.96,2376.23,757.19z"/>
		</g>
		<g>
			<g>
				<g>
					<path class="st93" d="M1874.11,1956.36l-68.65-16.27l46.79-52.7l29.71-33.54c-20.35-18.09-47.11-29.02-76.5-29.02
						c-63.63,0-115.26,51.57-115.26,115.26c0,63.63,51.63,115.26,115.26,115.26c54.52,0,100.18-37.81,112.18-88.63L1874.11,1956.36z
						"/>
				</g>
			</g>
			<g>
				<g>
					<path class="st92" d="M1874.11,1956.36c-7.35,31.09-35.24,54.27-68.65,54.27c-38.94,0-70.54-31.59-70.54-70.54
						c0-38.94,31.59-70.54,70.54-70.54c18.02,0,34.36,6.72,46.79,17.84l-46.79,52.7L1874.11,1956.36z"/>
				</g>
			</g>
		</g>
		<g>
			<path class="st93" d="M1951.97,1929.73c0,9.17-1.07,18.09-3.14,26.63L1905.3,1946c1.26-5.21,1.89-10.68,1.89-16.27
				c0-20.98-9.17-39.82-23.74-52.7l29.71-33.54C1936.96,1864.59,1951.97,1895.43,1951.97,1929.73z"/>
		</g>
		<g>
			<g>
				<rect x="577.05" y="613.7" class="st94" width="351.88" height="215.27"/>
			</g>
			<g>
				<rect x="577.05" y="613.7" class="st93" width="351.88" height="18.47"/>
			</g>
			<g>
				<circle class="st92" cx="586.19" cy="622.28" r="2.61"/>
			</g>
			<g>
				<circle class="st92" cx="598.13" cy="622.28" r="2.61"/>
			</g>
			<g>
				<circle class="st92" cx="610.07" cy="622.28" r="2.61"/>
			</g>
		</g>
	</g>
</g>
</svg>
